<svg width="345" height="238" viewBox="0 0 345 238" fill="none" xmlns="http://www.w3.org/2000/svg">
<path d="M62.5304 193.885C64.278 193.849 66.0257 193.825 67.7734 193.789C72.6523 193.765 77.5312 193.753 82.4101 193.717C86.3667 193.693 90.3353 193.633 94.2919 193.585C95.7483 193.561 97.2047 193.537 98.6489 193.501C106.623 193.441 114.584 193.381 122.558 193.321C122.667 193.237 122.764 193.165 122.874 193.081C122.874 192.985 122.886 192.889 122.898 192.793C122.922 191.498 122.971 190.215 122.971 188.92C122.971 187.997 123.371 187.733 124.257 187.985C126.296 188.561 126.393 188.681 126.053 190.743C125.92 191.582 125.823 192.422 125.714 193.201H143.263C143.142 192.026 143.069 191.031 142.948 190.06C142.838 189.196 143.178 188.788 144.064 188.812C144.452 188.812 144.841 188.812 145.229 188.812C147.511 188.812 148.478 189.96 148.13 192.254C148.093 192.482 148.069 192.71 148.045 192.901H196.725C196.664 191.966 196.676 191.271 196.543 190.587C196.3 189.292 196.676 188.645 198.108 188.8C199.298 188.92 200.827 188.573 201.567 189.184C202.15 189.664 201.786 191.295 201.846 192.518H219.056C218.911 191.546 218.765 190.671 218.644 189.784C218.51 188.836 219.517 188.009 220.986 187.889C222.212 187.793 221.896 188.74 221.92 189.4C221.957 190.347 221.92 191.307 221.92 192.434C224.36 192.434 226.727 192.446 229.081 192.434C237.625 192.362 246.169 192.278 254.714 192.194C259.568 192.146 264.423 192.122 269.277 192.002C269.824 191.99 270.552 191.582 270.879 191.127C273.78 187.11 276.632 183.045 279.436 178.968C279.958 178.2 280.492 177.865 281.438 177.912C283.04 177.996 284.655 177.841 286.244 177.96C287.495 178.056 288.029 177.613 288.101 176.426C288.126 175.958 288.308 175.514 288.441 174.951C290.322 175.658 292.155 176.27 293.915 177.037C294.971 177.505 295.808 177.565 296.573 176.629C297.252 175.79 298.017 175.802 299 176.15C303.576 177.745 308.163 179.267 313.139 180.946C312.362 180.994 311.962 181.042 311.574 181.042C302.35 181.042 293.126 181.042 283.902 181.018C282.968 181.018 282.409 181.282 281.924 182.097C280.115 185.143 278.222 188.141 276.195 191.415C278.987 191.594 281.523 191.762 284.048 191.93C284.339 191.954 284.63 191.93 284.922 191.954C286.774 192.018 287.956 191.103 288.465 189.208C290.699 189.94 292.956 190.599 295.141 191.438C296.342 191.906 297.252 191.858 298.09 190.887C298.988 189.844 300.02 189.82 301.342 190.107C307.532 191.474 313.758 192.71 319.972 193.993C320.142 194.029 320.3 194.136 320.7 194.328C314.426 195.647 308.394 196.918 302.362 198.201C301.937 198.297 301.5 198.345 301.088 198.489C299.971 198.873 299.024 198.693 298.248 197.77C297.349 196.703 296.33 196.619 295.019 197.134C292.907 197.962 290.723 198.597 288.453 199.353C288.211 198.381 287.98 197.47 287.725 196.427C283.938 196.655 280.188 196.87 276.195 197.11C278.307 200.54 280.285 203.813 282.349 207.027C282.567 207.363 283.368 207.459 283.902 207.459C293.174 207.483 302.447 207.471 311.719 207.459C312.047 207.459 312.362 207.459 312.739 207.71C310.154 208.586 307.568 209.461 304.971 210.337C302.993 211.008 301.003 211.608 299.061 212.351C298.029 212.747 297.204 212.723 296.5 211.859C295.747 210.948 294.922 211.056 293.927 211.476C292.155 212.231 290.334 212.855 288.599 213.502C288.162 212.459 288.029 211.164 287.325 210.696C286.621 210.229 285.334 210.432 284.339 210.588C281.232 211.092 279.302 209.917 277.737 207.183C275.698 203.657 273.161 200.408 270.782 197.086C270.479 196.667 269.799 196.271 269.29 196.271C253.755 196.223 238.22 196.235 222.673 196.235C222.491 196.235 222.297 196.283 222.066 196.307C221.738 199.473 220.719 202.29 218.255 204.461C218.704 201.751 219.918 199.173 219.299 196.295H201.337C201.956 197.986 202.526 199.473 203.012 200.983C203.133 201.367 203.036 201.835 203.036 202.254C202.635 202.075 202.101 202.003 201.846 201.691C200.584 200.18 199.443 198.573 198.169 197.074C197.829 196.667 197.222 196.247 196.737 196.247C180.522 196.199 164.308 196.199 148.081 196.247C147.596 196.247 147.001 196.703 146.649 197.11C145.411 198.585 144.295 200.156 143.069 201.631C142.79 201.955 142.207 202.039 141.77 202.231C141.77 201.787 141.673 201.319 141.819 200.923C142.316 199.449 142.899 198.01 143.542 196.331H125.483C125.01 199.137 125.981 201.727 126.939 204.389C125.01 203.969 123.711 201.319 122.801 196.295H37.3226C37.2741 197.11 37.2377 197.866 37.1891 198.717C33.2326 197.554 29.3489 196.427 25.1011 195.18C29.3489 193.825 33.2083 192.59 37.262 191.295C37.262 192.026 37.177 192.65 37.2984 193.225C37.359 193.525 37.796 193.741 38.063 193.993C42.3593 193.969 46.6557 193.933 50.952 193.897C54.8115 193.861 58.6709 193.825 62.5425 193.777L62.5304 193.885Z" fill="#F8F7F7"/>
<path d="M145.217 109.395C144.635 106.901 144.101 104.407 143.445 101.937C142.037 96.6606 140.557 91.4085 139.112 86.1444C139.04 85.8686 139.015 85.5448 138.857 85.329C138.651 85.0532 138.336 84.8493 138.069 84.6215C137.85 84.9453 137.535 85.257 137.438 85.6048C137.328 86.0604 137.413 86.5521 137.413 87.0317C137.413 90.4852 137.389 93.9386 137.425 97.3801C137.438 98.3753 137.122 98.759 136.09 98.735C134.051 98.6871 132.012 98.6991 129.974 98.735C129.063 98.735 128.614 98.4113 128.675 97.464C128.723 96.8405 128.59 96.1929 128.723 95.6054C128.808 95.2456 129.233 94.694 129.524 94.682C130.544 94.6341 130.665 94.0945 130.702 93.2671C130.981 86.1324 131.309 78.9977 131.588 71.8629C131.624 70.8557 131.903 70.352 133.02 70.436C134.076 70.5199 135.156 70.436 136.224 70.46C136.964 70.46 137.583 70.2561 137.365 69.4287C137.255 69.033 136.685 68.7572 136.285 68.4574C136.2 68.3855 136.005 68.4574 135.86 68.4574C132.546 68.4095 132.813 68.3855 132.474 65.2079C132.134 61.8983 133.129 59.572 136.102 58.0731C136.309 57.9652 136.467 57.7614 136.673 57.6175C139.44 55.6149 138.712 55.1953 141.2 58.0851C141.77 58.7446 141.94 59.2722 141.358 59.9557C141.297 60.0277 141.285 60.1356 141.224 60.2075C139.173 62.5938 138.688 64.8961 140.981 67.5701C142.183 68.9611 141.685 69.9443 139.913 70.6278C138.967 70.9876 138.736 71.5392 138.967 72.3905C140.059 76.3956 141.115 80.4006 142.292 84.3817C143.858 89.7057 145.787 94.9578 147.038 100.354C147.851 103.855 147.729 107.573 147.972 111.206C147.984 111.446 147.499 111.961 147.305 111.937C145.569 111.709 144.537 112.921 143.372 113.784C142.377 114.515 141.819 114.515 141.346 113.268C140.156 110.139 138.833 107.045 137.668 103.903C136.904 101.865 138.117 100.078 138.857 98.3393C139.161 97.6199 139.865 98.3034 140.144 98.9509C141.455 102.045 142.79 105.126 144.113 108.208C144.307 108.664 144.562 109.095 144.792 109.539L145.241 109.407L145.217 109.395ZM136.697 76.1318C136.624 76.0478 136.345 75.6881 136.066 75.3284C135.835 75.7001 135.459 76.0478 135.411 76.4316C134.804 82.0554 134.246 87.6792 133.663 93.3031C133.59 93.9626 133.554 94.5861 134.488 94.6461C135.447 94.706 135.568 94.1185 135.617 93.363C135.957 87.7632 136.309 82.1633 136.697 76.1318ZM145.266 109.875C145.193 109.779 145.108 109.683 145.023 109.587C144.962 109.647 144.829 109.731 144.841 109.767C144.889 109.899 144.974 110.007 145.047 110.115C145.108 110.043 145.169 109.971 145.253 109.863L145.266 109.875Z" fill="#F8F7F7"/>
<path d="M184.648 120.559C184.648 121.326 184.648 122.094 184.648 122.861C184.648 125.235 182.925 126.303 180.716 125.295C180.449 125.175 180.206 124.996 179.927 124.936C176.663 124.24 175.886 122.214 175.862 119.036C175.825 110.498 175.388 101.973 175.061 93.4469C174.963 90.9888 176.942 89.7057 178.095 87.955C178.18 87.8351 178.823 87.943 179.114 88.1109C183.932 91.0127 186.481 95.3056 187.039 100.798C187.1 101.409 187.112 102.057 187.039 102.668C186.748 105.114 187.355 107.273 188.872 109.239C189.273 109.755 189.479 110.546 189.491 111.218C189.552 114.24 189.527 117.261 189.503 120.283C189.503 120.655 189.503 121.11 189.309 121.374C189.042 121.722 188.569 121.914 188.192 122.166C187.986 121.782 187.634 121.41 187.61 121.015C187.537 119.72 187.707 118.412 187.525 117.141C187.452 116.614 186.809 115.846 186.323 115.762C185.522 115.631 184.673 116.038 184.648 117.105C184.624 118.257 184.648 119.408 184.648 120.559Z" fill="#FBFBFB"/>
<path d="M169.284 107.417C169.126 112.297 168.932 117.189 168.823 122.07C168.798 122.993 168.446 123.461 167.621 123.772C166.492 124.204 165.352 124.648 164.308 125.235C163.252 125.823 162.366 125.727 161.322 125.211C160.558 124.828 160.242 124.396 160.266 123.557C160.315 121.686 160.278 119.815 160.278 117.945C160.278 116.47 159.635 115.594 158.531 115.69C157.062 115.822 157.208 116.949 157.208 117.957C157.208 118.964 157.269 119.971 157.196 120.979C157.171 121.374 156.856 121.758 156.674 122.142C156.249 121.806 155.764 121.53 155.448 121.122C155.278 120.907 155.387 120.475 155.387 120.139C155.387 117.549 155.448 114.959 155.351 112.369C155.29 110.822 155.533 109.431 156.565 108.22C157.705 106.889 157.972 105.342 157.815 103.663C157.414 99.3705 158.519 95.4494 161.237 92.0919C162.427 90.6289 164.029 89.4778 165.473 88.2187C166.213 87.5712 166.844 87.7271 167.378 88.5665C167.997 89.5378 168.762 90.4251 169.344 91.4204C169.611 91.876 169.745 92.4876 169.733 93.0272C169.624 97.8236 169.454 102.608 169.308 107.393C169.308 107.393 169.296 107.393 169.284 107.393V107.417Z" fill="#FCFCFC"/>
<path d="M172.512 85.4609C175.437 86.3002 176.687 84.6575 177.925 82.3432C180.753 76.9951 183.836 71.779 186.846 66.5269C187.234 65.8554 187.489 65.3397 186.591 64.8961C186.421 64.8121 186.202 64.4764 186.251 64.3205C186.664 63.0374 186.785 61.4306 187.647 60.5793C188.86 59.3921 190.705 59.1643 192.416 59.8838C194.747 60.8671 195.523 62.8336 194.419 65.052C191.725 70.4719 189.018 75.8799 186.263 81.264C185.96 81.8515 185.863 82.9907 184.71 82.4751C183.508 81.9475 182.901 80.4486 183.387 79.4893C185.96 74.441 188.533 69.3927 191.106 64.3445C191.239 64.0927 191.506 63.7929 191.458 63.577C191.348 63.1694 191.045 62.8216 190.826 62.4379C190.547 62.6537 190.11 62.8096 190.013 63.0854C187.525 70.1602 182.853 76.0838 179.454 82.6789C178.314 84.8973 176.966 87.0077 175.765 89.2021C175.328 90.0055 174.843 90.4012 173.847 90.4012C169.757 90.4012 169.794 90.4252 167.791 86.8758C163.859 79.9449 159.854 73.0381 155.909 66.1072C155.473 65.3278 155.339 64.3924 154.951 63.577C154.744 63.1454 154.283 62.8216 153.931 62.4619C153.81 63.0015 153.446 63.649 153.628 64.0567C154.538 66.0712 155.582 68.0138 156.589 69.9803C158.203 73.146 159.817 76.3116 161.432 79.4773C161.917 80.4366 160.934 82.4751 159.854 82.535C159.526 82.559 159.004 82.1153 158.834 81.7556C156.225 76.6234 153.652 71.4672 151.067 66.311C150.897 65.9633 150.751 65.6035 150.557 65.2798C149.841 64.0927 149.246 62.9415 150.327 61.6105C151.419 60.2675 152.681 59.3802 154.538 59.536C157.16 59.7639 158.956 61.8024 158.664 64.2725C158.664 64.3685 158.664 64.5124 158.604 64.5483C156.747 65.6875 158.203 66.7787 158.749 67.75C161.735 73.122 164.842 78.4341 167.791 83.8181C168.495 85.1131 169.32 85.6647 170.753 85.4489C171.323 85.3649 171.918 85.4369 172.5 85.4369L172.512 85.4609Z" fill="#F4F3F3"/>
<path d="M203.424 123.737C204.492 123.737 205.56 123.784 206.628 123.725C207.744 123.653 208.109 124.096 207.951 125.163C207.283 129.564 206.749 133.977 205.985 138.366C205.426 141.519 204.722 144.661 203.836 147.743C203.218 149.889 202.198 151.928 201.312 154.002C200.001 157.084 199.152 160.262 199.091 163.607C199.067 164.806 198.739 165.298 197.441 164.914C196.142 164.518 194.807 164.279 193.484 163.967C192.768 163.787 192.392 163.463 192.732 162.636C197.525 150.561 198.715 137.922 198.593 125.104C198.593 124.06 198.97 123.737 199.929 123.761C201.094 123.796 202.259 123.761 203.424 123.761V123.737ZM204.504 133.353C204.358 133.174 204.116 132.634 203.897 132.646C203.509 132.658 203.06 132.934 202.768 133.234C202.562 133.437 202.574 133.857 202.501 134.181C201.251 139.685 200.013 145.189 198.776 150.681C198.436 152.179 198.047 153.654 197.805 155.165C197.744 155.549 198.12 156.005 198.302 156.436C198.642 156.125 199.018 155.837 199.31 155.489C199.455 155.321 199.443 155.033 199.504 154.806C200.523 150.477 201.543 146.148 202.55 141.819C203.193 139.073 203.824 136.327 204.516 133.341L204.504 133.353Z" fill="#F6F6F6"/>
<path d="M146.224 130.428C146.601 140.176 147.705 149.805 150.824 159.122C151.225 160.297 151.637 161.473 152.123 162.624C152.45 163.367 152.183 163.727 151.504 163.895C149.999 164.279 148.494 164.626 146.989 164.986C145.824 165.262 145.848 164.446 145.812 163.715C145.654 160.381 145.083 157.108 143.554 154.134C140.156 147.467 139.149 140.212 137.996 132.982C137.583 130.38 137.328 127.766 136.903 125.163C136.733 124.108 137.098 123.748 138.105 123.748C140.387 123.76 142.668 123.784 144.938 123.748C145.982 123.724 146.261 124.168 146.236 125.139C146.176 126.914 146.224 128.689 146.224 130.452V130.428ZM147.729 156.125C147.559 155.957 147.377 155.777 147.207 155.609C147.171 155.465 147.122 155.333 147.098 155.189C145.472 147.995 143.846 140.812 142.231 133.617C142.074 132.922 141.77 132.322 140.993 132.67C140.702 132.802 140.484 133.581 140.581 134.001C141.625 138.725 142.717 143.426 143.809 148.138C144.38 150.609 144.926 153.091 145.581 155.537C145.678 155.909 146.212 156.28 146.625 156.412C146.928 156.508 147.353 156.232 147.729 156.125Z" fill="#F7F6F6"/>
<path d="M179.285 43.8996C179.721 44.667 179.855 45.3745 179.564 46.3098C179.382 46.9214 179.758 47.9166 180.219 48.4562C181.02 49.3915 182.112 50.087 183.01 50.9504C184.091 51.9816 184.03 52.797 182.828 53.6844C182.173 54.164 181.384 54.4518 180.692 54.8955C179.03 55.9507 177.318 56.934 175.765 58.1451C173.653 59.7998 172.634 62.0062 173.083 64.7282C173.204 65.4836 173.083 66.0712 172.245 65.9273C171.93 65.8793 171.469 65.1359 171.517 64.7642C171.857 62.1021 170.995 59.9078 168.932 58.265C167.439 57.0779 165.776 56.0706 164.174 55.0274C163.531 54.6077 162.791 54.3439 162.135 53.9482C160.497 52.9289 160.424 51.9456 161.881 50.6626C162.682 49.9671 163.628 49.3915 164.272 48.5761C164.733 47.9766 164.818 47.0892 165.06 46.3218C164.49 44.2833 165.267 43.288 167.439 43.288C170.777 43.288 174.114 43.2521 177.44 43.312C178.047 43.312 178.653 43.6957 179.272 43.9116L179.285 43.8996ZM175.546 50.0151C175.546 50.0151 175.546 50.0151 175.559 50.0151C175.607 49.1037 175.741 48.1924 175.656 47.2931C175.619 46.9214 175.146 46.5856 174.879 46.2379C174.539 46.5257 173.908 46.8134 173.884 47.1252C173.787 49.0318 173.799 50.9624 173.872 52.869C173.872 53.1807 174.321 53.4685 174.563 53.7683C174.818 53.4685 175.231 53.2047 175.292 52.881C175.449 51.9456 175.461 50.9744 175.534 50.0151H175.546ZM170.752 50.0031C170.752 49.0438 170.837 48.0845 170.704 47.1372C170.655 46.8015 170.109 46.3698 169.733 46.2978C169.502 46.2499 168.896 46.8254 168.908 47.1012C168.981 49.0558 169.138 51.0103 169.345 52.9649C169.369 53.2407 169.794 53.4805 170.024 53.7323C170.267 53.4445 170.692 53.1687 170.716 52.857C170.813 51.9097 170.752 50.9504 170.74 49.9911L170.752 50.0031Z" fill="#F8F7F7"/>
<path d="M141.892 72.1865C142.171 71.6469 142.45 70.8195 142.96 70.16C144.258 68.4933 145.678 66.9104 147.038 65.2796C147.693 64.5002 148.227 64.5722 148.688 65.4595C150.084 68.1335 151.516 70.7956 152.851 73.5175C153.021 73.8773 152.839 74.6807 152.523 74.9565C151.297 76.0357 150.982 77.3067 151.006 78.9016C151.091 86.5759 151.055 94.2502 151.006 101.913C151.006 102.416 150.594 102.932 150.375 103.435C150.011 103.016 149.453 102.656 149.331 102.176C146.916 92.7633 144.562 83.3383 142.195 73.9133C142.074 73.4456 142.037 72.966 141.904 72.1865H141.892Z" fill="#F9F8F8"/>
<path d="M193.872 89.8735C193.872 86.1803 193.812 82.487 193.909 78.8057C193.945 77.3068 193.678 76.0717 192.465 75.1364C191.724 74.5608 191.7 73.9613 192.149 73.1459C193.508 70.6637 194.795 68.1456 196.081 65.6155C196.603 64.5962 197.161 64.4523 197.902 65.3756C199.382 67.1983 200.936 68.985 202.307 70.8916C202.72 71.4671 202.926 72.4624 202.756 73.1579C201.021 80.6164 199.188 88.0509 197.368 95.4974C196.822 97.7277 196.239 99.9461 195.584 102.14C195.438 102.632 194.916 103.016 194.564 103.447C194.334 102.956 193.921 102.464 193.909 101.973C193.86 97.9436 193.885 93.9265 193.872 89.8975V89.8735Z" fill="#FBFBFB"/>
<path d="M203.181 82.9547L203.218 82.8587C203.752 82.8587 204.31 82.9667 204.796 82.8108C205.123 82.7029 205.475 82.2592 205.536 81.9234C205.657 81.2519 205.609 80.5445 205.572 79.849C205.5 78.5419 205.378 77.2469 205.281 75.9399C205.318 75.748 205.354 75.5562 205.39 75.3523C205.451 75.2324 205.5 75.1125 205.56 74.9926C205.621 74.7288 205.694 74.4769 205.754 74.2131C205.803 73.9254 205.852 73.6376 205.9 73.3498C205.924 72.9661 205.949 72.5823 205.973 72.1986C206.64 71.9228 206.665 71.635 205.997 71.3233C205.791 71.1314 205.621 70.8436 205.378 70.7717C202.842 69.9563 202.902 68.7092 204.347 66.7067C204.444 66.5628 204.541 66.4069 204.65 66.263C204.868 65.9393 205.087 65.6155 205.293 65.2917C205.378 65.1838 205.475 65.0639 205.56 64.956C205.524 64.3564 205.633 63.7089 205.402 63.1813C204.966 62.1621 204.334 61.2148 203.788 60.2315C203.703 60.0996 203.618 59.9557 203.533 59.8238C203.436 59.6319 203.339 59.4521 203.242 59.2602C203.242 59.1283 203.218 58.9964 203.218 58.8645L205.002 56.6461C205.293 56.4543 205.585 56.2624 205.876 56.0706C206.167 56.2384 206.458 56.4183 206.75 56.5862C206.64 57.5095 207.235 57.5575 207.915 57.5095C208.218 57.7493 208.534 57.9771 208.837 58.217C208.643 59.3801 209.177 59.6079 210.184 59.2482C210.306 59.3441 210.415 59.4281 210.536 59.524C210.645 59.9797 210.767 60.4353 210.876 60.891C211.179 60.7591 211.483 60.6272 211.774 60.4953C211.944 60.903 212.248 61.2987 212.26 61.7184C212.308 63.529 212.235 65.3397 212.296 67.1504C212.332 68.1816 211.908 68.5054 210.937 68.4454C210.172 68.3974 209.359 68.3135 208.631 68.4814C208.17 68.5893 207.793 69.1289 207.393 69.4766C207.818 69.8004 208.218 70.364 208.679 70.4239C209.966 70.5678 211.277 70.5079 212.575 70.5319C212.709 70.6038 212.854 70.6758 212.988 70.7477C213.024 71.0475 213.073 71.3473 213.109 71.647C213.182 72.7982 213.243 73.9493 213.316 75.0885C213.352 76.1437 213.376 77.1989 213.413 78.2661C213.485 79.7051 213.57 81.144 213.643 82.571C213.667 83.4343 213.68 84.2977 213.704 85.173C213.777 86.4201 213.85 87.6672 213.922 88.9143C213.947 89.4899 213.959 90.0534 213.983 90.629C213.74 90.689 213.498 90.7489 213.267 90.8089C213.267 90.8808 213.267 90.9528 213.267 91.0247C213.51 91.0847 213.752 91.1446 213.995 91.2046C213.995 91.4924 213.995 91.7802 214.007 92.0799C213.922 92.5596 213.825 93.0272 213.74 93.5069C212.903 93.411 212.053 93.315 211.216 93.2191C211.07 91.6003 210.912 89.9695 210.767 88.3507L210.67 87.7511C210.294 84.0339 209.942 80.3166 209.517 76.6114C209.468 76.1677 208.971 75.772 208.691 75.3523C208.534 75.796 208.23 76.2516 208.23 76.6953C208.255 78.6499 208.376 80.6164 208.461 82.571C207.781 82.7508 207.089 82.9067 206.41 83.1106C205.366 83.4223 205.281 83.938 206.119 84.8373C206.07 84.9452 206.021 85.0531 205.961 85.161C204.711 85.7486 203.728 84.9332 202.647 84.5735C202.757 84.1898 202.866 83.8061 202.963 83.4223C203.024 83.2664 203.097 83.0986 203.157 82.9427L203.181 82.9547Z" fill="white"/>
<path d="M193.618 34.5104C195.353 36.9566 195.475 43.2039 193.763 45.2904C190.778 48.9357 184.273 49.0916 181.166 45.5062C180.607 44.8587 180.17 44.1153 179.673 43.4078C178.933 41.1654 179.369 38.9831 179.988 36.8127C180.365 36.0572 180.753 35.2898 181.129 34.5343C182.112 32.292 183.884 31.5965 186.227 31.9682C186.554 32.0162 186.894 31.9323 187.222 31.9083C188.399 32.0162 189.649 31.9323 190.754 32.268C191.676 32.5438 192.441 33.3113 193.266 33.8628C191.931 35.3258 190.596 36.7767 189.249 38.2396C187.173 39.2708 185.098 40.3141 182.768 41.4772C183.023 42.1008 183.338 43.132 183.836 44.0793C184.503 45.3504 185.498 46.5015 187.028 46.4655C188.593 46.4296 189.334 45.0985 189.892 43.7795C189.94 43.6476 190.001 43.5277 190.05 43.3958C190.159 43.0241 190.268 42.6404 190.377 42.2686C190.414 41.9689 190.462 41.6571 190.499 41.3573C190.499 40.9016 190.499 40.446 190.487 39.9903C189.989 38.4315 190.705 37.3523 191.858 36.369C192.501 35.8294 193.023 35.1219 193.594 34.4984L193.618 34.5104Z" fill="#FBF8F8"/>
<path d="M163.628 45.4344C160.691 48.3483 157.293 48.8759 153.53 47.2571C151.479 46.3817 150.132 44.9308 149.829 42.6645C149.44 39.8226 149.501 37.0526 151.006 34.4865C151.928 35.5058 152.899 36.4771 153.749 37.5563C154.077 37.964 154.089 38.6115 154.246 39.1511C154.222 39.331 154.198 39.5108 154.186 39.6907C154.234 40.7339 154.295 41.7771 154.344 42.8204C154.538 43.312 154.732 43.7797 154.926 44.2473V44.2713C155.035 44.4392 155.132 44.6071 155.23 44.7869C155.23 44.8589 155.266 44.9188 155.339 44.9428C155.484 45.1107 155.63 45.2786 155.776 45.4464C157.074 46.7894 158.033 46.8854 159.38 45.7222C160.825 44.4871 161.577 42.8803 161.795 41.4294C159.623 40.3622 157.62 39.3909 155.63 38.4076C154.198 36.8968 152.778 35.3979 151.346 33.887C152.244 33.2994 153.13 32.7119 154.028 32.1243C154.513 32.0523 155.011 31.9804 155.497 31.9084C156.067 31.9084 156.637 31.9084 157.208 31.9084C158.761 32.0164 160.315 32.1123 161.868 32.2202C162.014 32.4001 162.172 32.5799 162.317 32.7718C162.827 33.6352 163.373 34.4865 163.822 35.3739C165.546 38.7554 166.213 42.1369 163.616 45.4344H163.628Z" fill="#FBF8F8"/>
<path d="M201.458 180.119C199.662 180.706 198.485 179.591 197.526 177.864C196.688 176.354 195.79 174.843 194.662 173.536C192.865 171.461 192.586 169.123 192.78 166.569C192.841 165.705 193.12 165.322 194.018 165.466C195.45 165.693 196.919 165.813 198.327 166.149C198.788 166.257 199.274 166.797 199.48 167.264C201.215 171.065 202.866 174.903 204.577 178.704C205.014 179.663 204.868 180.167 203.691 180.107C203.06 180.071 202.429 180.107 201.446 180.107L201.458 180.119Z" fill="#F9F8F8"/>
<path d="M143.408 180.119C139.343 180.131 139.598 180.359 141.018 177.121C142.401 173.955 143.845 170.814 145.193 167.636C145.617 166.641 146.139 166.077 147.292 166.017C148.494 165.957 149.695 165.681 150.885 165.478C151.698 165.334 152.025 165.622 152.062 166.449C152.159 168.955 152.159 171.365 150.278 173.44C149.125 174.711 148.239 176.246 147.414 177.757C146.443 179.507 145.314 180.754 143.421 180.107L143.408 180.119Z" fill="#FAF9FA"/>
<path d="M157.268 30.1936C159.247 29.1024 161.225 27.9872 163.215 26.932C163.531 26.7641 163.968 26.7761 164.344 26.7761C169.623 26.7761 174.903 26.7641 180.17 26.7761C180.728 26.7761 181.335 26.896 181.833 27.1478C183.35 27.8793 184.855 28.6587 186.299 29.5221C186.712 29.7619 186.918 30.3374 187.222 30.7691C185.025 30.8051 182.78 31.1049 180.619 30.8051C175.109 30.0497 169.636 29.7978 164.15 30.901C164.041 30.8651 163.956 30.901 163.907 30.997C161.686 30.913 159.465 30.8171 157.244 30.7332V30.7451C157.244 30.5653 157.244 30.3734 157.244 30.1936H157.268Z" fill="#F6F6F6"/>
<path d="M159.975 49.6673C158.98 52.6411 159.247 53.4325 161.674 54.9673C162.524 55.5069 163.422 55.9986 164.344 56.4063C167.196 57.6414 169.163 59.7398 170.498 62.4618C170.668 62.8215 170.546 63.3132 170.558 63.7449C169.988 63.6489 169.284 63.7329 168.871 63.4211C168.349 63.0494 168.107 62.3299 167.682 61.8143C166.262 60.1235 164.502 59.0203 162.22 58.8765C160.097 58.7446 157.96 58.6486 155.837 58.4328C155.254 58.3728 154.538 58.0251 154.198 57.5814C153.118 56.1665 152.183 54.6556 151.213 53.1567C150.63 52.2574 151.055 51.418 152.086 51.5978C153.992 51.9216 155.448 51.1302 157.002 50.2788C157.803 49.8471 158.846 49.8711 159.987 49.6553L159.975 49.6673Z" fill="#F6F6F6"/>
<path d="M184.855 49.6433C185.874 49.8951 187.003 49.9431 187.889 50.4347C189.321 51.2261 190.668 51.8857 192.392 51.6099C193.545 51.43 194.006 52.2334 193.399 53.1927C192.428 54.7276 191.433 56.2744 190.353 57.7373C190.074 58.121 189.43 58.4088 188.933 58.4568C186.857 58.6487 184.782 58.7446 182.707 58.8525C179.794 59.0204 177.755 60.5552 176.177 62.8455C176.019 63.0854 175.91 63.4691 175.692 63.541C175.182 63.6969 174.624 63.6969 174.078 63.7569C174.078 63.3252 173.956 62.8336 174.126 62.4858C175.437 59.8358 177.318 57.7373 180.134 56.5142C181.36 55.9866 182.537 55.2791 183.629 54.4997C185.559 53.1207 185.729 52.2454 184.709 50.1709L184.867 49.6553L184.855 49.6433Z" fill="#F7F6F6"/>
<path d="M216.167 106.565C216.167 108.34 216.119 110.103 216.179 111.877C216.216 112.837 215.949 113.244 214.905 113.268C211.288 113.376 211.301 113.4 210.5 109.851C209.856 107.009 209.201 104.167 208.485 101.349C208.218 100.27 208.485 99.8262 209.638 99.8622C211.276 99.9101 212.927 99.9221 214.577 99.8622C215.743 99.8142 216.264 100.162 216.192 101.409C216.095 103.124 216.167 104.85 216.167 106.577V106.565Z" fill="#FAF9FA"/>
<path d="M128.687 106.589C128.687 104.767 128.723 102.956 128.675 101.133C128.651 100.198 129.039 99.8382 129.961 99.8622C131.758 99.8862 133.542 99.8862 135.338 99.8622C136.285 99.8622 136.661 100.198 136.418 101.181C135.532 104.898 134.695 108.628 133.821 112.345C133.76 112.609 133.59 113.064 133.457 113.064C131.976 113.112 130.483 113.112 129.003 113.028C128.881 113.028 128.711 112.285 128.699 111.889C128.663 110.115 128.687 108.352 128.687 106.577V106.589Z" fill="#F8F8F9"/>
<path d="M164.162 30.9012C169.648 29.81 175.122 30.0498 180.632 30.8052C182.792 31.105 185.025 30.8052 187.234 30.7693C187.234 31.153 187.234 31.5367 187.234 31.9204C186.894 31.9444 186.554 32.0283 186.239 31.9804C183.896 31.6086 182.124 32.3041 181.141 34.5465C180.255 34.0309 180.122 34.8462 179.855 35.3019C179.564 35.8175 179.054 36.4051 180 36.8248C179.382 38.9952 178.945 41.1776 179.685 43.4199C179.551 43.5758 179.418 43.7317 179.284 43.8996C178.678 43.6957 178.071 43.312 177.452 43.3C174.114 43.24 170.789 43.276 167.451 43.276C165.279 43.276 164.502 44.2713 165.072 46.3098C164.587 46.022 164.102 45.7222 163.628 45.4344C166.225 42.1369 165.558 38.7554 163.835 35.3739C163.385 34.4865 162.839 33.6351 162.33 32.7718C162.742 32.7718 163.167 32.7718 163.58 32.7718C165.728 35.182 166.808 37.94 166.492 41.1896C166.407 42.1009 167.075 42.1488 167.743 42.1488C170.789 42.1488 173.847 42.1488 176.894 42.1488C177.901 42.1488 178.229 41.7651 178.156 40.7459C177.962 38.1798 178.581 35.8175 180.28 33.791C181.396 32.46 181.311 32.2562 179.515 31.8844C174.612 30.8772 169.709 31.069 164.818 31.8724L164.186 30.8892L164.162 30.9012Z" fill="#342F2E"/>
<path d="M199.431 109.935C199.783 109.563 200.269 109.239 200.475 108.796C201.907 105.606 203.254 102.38 204.686 99.1786C204.868 98.7589 205.318 98.4472 205.633 98.0754C205.924 98.4592 206.288 98.8189 206.495 99.2386C207.636 101.613 207.599 103.903 206.373 106.313C205.269 108.484 204.529 110.834 203.606 113.088C203.024 114.539 202.793 114.587 201.543 113.748C200.329 112.932 199.334 111.697 197.599 111.901C197.404 111.925 196.931 111.242 196.931 110.894C196.931 109.803 197.089 108.712 197.198 107.62C197.356 108.496 197.526 109.371 197.756 110.594C198.29 110.378 198.873 110.151 199.456 109.923L199.431 109.935Z" fill="#F5F5F5"/>
<path d="M199.431 109.935C198.849 110.163 198.266 110.39 197.732 110.606C197.502 109.383 197.344 108.508 197.174 107.632C197.247 106.769 197.307 105.906 197.38 105.03L197.453 103.016C197.489 102.44 197.538 101.865 197.574 101.289C197.671 100.917 197.756 100.546 197.853 100.174L198.108 99.2747C198.181 99.0828 198.254 98.8909 198.327 98.6991C198.533 98.0276 198.739 97.3561 198.946 96.6726C199.031 96.3848 199.128 96.097 199.213 95.8212C199.334 95.3536 199.468 94.8739 199.589 94.4063C199.662 94.2024 199.735 94.0105 199.82 93.8067C199.941 93.423 200.05 93.0273 200.172 92.6436C200.39 92.4757 200.73 92.3438 200.791 92.1279C200.997 91.4564 201.094 90.749 201.24 90.0535C201.555 90.2933 201.883 90.5211 202.174 90.7849C202.757 91.3005 203.315 91.8401 203.885 92.3558C203.8 92.6316 203.715 92.9194 203.63 93.1951C203.582 93.387 203.546 93.5789 203.497 93.7707C203.436 93.9626 203.376 94.1544 203.303 94.3463C202.587 95.8092 201.713 97.2242 202.077 98.9629C201.944 99.5385 201.81 100.114 201.676 100.69C201.507 101.265 201.349 101.841 201.179 102.416C201.155 102.608 201.13 102.8 201.094 102.992C200.293 103.823 200.111 104.491 200.548 104.994C200.511 105.186 200.475 105.378 200.439 105.57C199.516 105.954 199.589 106.577 199.99 107.297C199.953 107.489 199.917 107.68 199.868 107.872C199.82 108.064 199.759 108.256 199.71 108.448C199.613 108.94 199.504 109.419 199.407 109.911L199.431 109.935Z" fill="white"/>
<path d="M191.906 102.512C191.567 102.008 191.3 101.637 191.069 101.241C189.018 97.8716 186.991 94.5021 184.916 91.1445C184.503 90.485 184.43 90.0054 184.928 89.3459C185.656 88.3866 186.214 87.3194 186.918 86.3361C187.477 85.5567 188.12 85.6166 188.363 86.5399C189.698 91.6841 190.972 96.8403 192.258 101.997C192.271 102.056 192.161 102.14 191.906 102.5V102.512Z" fill="#F4F3F3"/>
<path d="M152.62 102.212C152.681 101.829 152.717 101.433 152.814 101.049C153.992 96.3726 155.169 91.6841 156.382 87.0196C156.492 86.5999 156.844 86.2521 157.086 85.8684C157.45 86.1322 157.851 86.36 158.167 86.6838C160.375 88.9501 160.533 91.1205 158.446 93.7466C156.577 96.0968 155.254 98.8668 153.676 101.445C153.47 101.781 153.215 102.068 152.972 102.38C152.851 102.332 152.741 102.272 152.62 102.224V102.212Z" fill="#F3F2F3"/>
<path d="M172.609 69.7525C173.471 69.8604 174.576 69.9803 175.668 70.1482C177.124 70.376 177.962 72.0548 177.197 73.2539C177.039 73.4937 176.53 73.7095 176.238 73.6496C173.592 73.122 170.959 73.134 168.313 73.6496C167.488 73.8175 167.197 73.4338 167.16 72.6423C167.051 70.5079 167.063 70.448 169.187 70.0762C169.612 70.0043 170.049 69.9323 170.473 69.8844C171.104 69.8244 171.723 69.8004 172.597 69.7405L172.609 69.7525Z" fill="#F4F3F3"/>
<path d="M172.403 73.9492C173.653 74.1291 174.891 74.3569 176.141 74.4768C177.063 74.5728 177.355 74.9924 177.343 75.8798C177.343 78.0502 177.282 78.0142 175.158 77.8224C173.204 77.6545 171.214 77.8104 169.235 77.8224C168.459 77.8224 167.318 78.5178 167.208 77.0669C167.051 75.0164 167.075 74.5248 168.641 74.4289C169.891 74.3569 171.141 74.1171 172.403 73.9492Z" fill="#F2F1F1"/>
<path d="M152.851 115.379C151.225 116.206 149.598 117.046 147.948 117.849C147.329 118.149 144.234 116.674 144.161 116.026C144.137 115.75 144.428 115.307 144.707 115.163C146.382 114.324 148.093 113.544 149.78 112.741C150.12 112.609 150.472 112.477 150.812 112.345C151.783 112.105 152.754 111.853 153.713 111.614C153.883 111.997 154.052 112.381 154.222 112.765C154.222 113.352 154.222 113.928 154.222 114.515C153.761 114.803 153.3 115.091 152.839 115.379H152.851Z" fill="#F9F8F8"/>
<path d="M190.705 114.515C190.681 113.808 190.559 113.088 190.681 112.405C190.729 112.105 191.275 111.901 191.603 111.649C191.7 111.661 191.797 111.673 191.894 111.697C192.574 111.901 193.253 112.105 193.933 112.309C194.285 112.453 194.637 112.609 194.989 112.753C196.979 113.652 198.97 114.539 200.997 115.463C199.516 117.729 197.623 118.269 195.644 117.261C194.491 116.674 193.351 116.062 192.198 115.463C191.7 115.151 191.202 114.851 190.705 114.539V114.515Z" fill="#F8F7F7"/>
<path d="M196.446 184.436C196.494 180.826 195.972 181.438 199.601 181.282C201.13 181.21 201.701 181.714 201.701 183.177C201.701 184.28 201.944 185.383 201.883 186.474C201.871 186.846 201.312 187.434 200.948 187.493C200.002 187.637 199.006 187.469 198.048 187.553C196.737 187.673 196.276 187.122 196.434 185.887C196.494 185.419 196.434 184.927 196.434 184.448L196.446 184.436Z" fill="#F6F6F6"/>
<path d="M148.385 184.508C148.312 187.853 149.04 187.517 145.29 187.541C144.901 187.541 144.513 187.529 144.125 187.541C143.19 187.589 142.79 187.194 142.899 186.246C143.045 184.915 142.862 183.488 143.299 182.265C144.003 180.263 145.884 181.69 147.195 181.342C148.045 181.114 148.421 181.654 148.385 182.505C148.348 183.177 148.385 183.848 148.385 184.52V184.508Z" fill="#F2F1F1"/>
<path d="M216.167 119.911C216.167 121.158 216.216 122.405 216.131 123.641C216.107 124 215.67 124.624 215.451 124.612C214.978 124.576 214.201 124.312 214.104 123.988C213.34 121.422 212.709 118.82 212.041 116.23C212.005 116.098 212.017 115.822 212.041 115.822C213.121 115.642 214.201 115.403 215.282 115.367C215.561 115.367 216.083 115.978 216.119 116.338C216.228 117.525 216.155 118.724 216.155 119.923L216.167 119.911Z" fill="#F6F6F6"/>
<path d="M186.663 85.0531C185.802 86.4441 185.134 87.6672 184.297 88.7704C184.078 89.0582 183.217 89.2141 182.925 89.0222C181.833 88.3267 180.826 87.4874 179.867 86.612C179.612 86.3722 179.661 85.8086 179.576 85.3889C179.576 85.3529 179.6 85.293 179.624 85.257C181.602 81.168 180.789 81.6477 184.321 83.6502C185.061 84.0699 185.79 84.5255 186.651 85.0531H186.663Z" fill="#F6F6F6"/>
<path d="M158.179 85.0291C159.841 84.0578 161.346 83.1225 162.912 82.3071C163.143 82.1872 163.822 82.499 164.004 82.7868C164.514 83.5902 164.951 84.4655 165.242 85.3649C165.364 85.7366 165.182 86.3961 164.89 86.6839C164.016 87.5113 163.021 88.1948 162.099 88.9622C161.419 89.5258 160.897 89.4418 160.448 88.6864C159.756 87.5472 159.04 86.4081 158.191 85.0291H158.179Z" fill="#F7F6F6"/>
<path d="M128.687 119.983C128.687 118.784 128.711 117.585 128.687 116.386C128.663 115.607 128.942 115.307 129.779 115.271C133.153 115.127 133.141 115.091 132.279 118.353C131.818 120.115 131.333 121.866 130.932 123.641C130.75 124.456 130.277 124.9 129.524 124.624C129.148 124.492 128.772 123.856 128.735 123.425C128.626 122.286 128.699 121.134 128.699 119.983H128.687Z" fill="#F4F3F3"/>
<path d="M206.131 84.8493C205.305 83.95 205.378 83.4344 206.422 83.1226C207.102 82.9188 207.793 82.7629 208.473 82.583C208.57 83.926 208.667 85.269 208.764 86.612C208.728 86.636 208.655 86.684 208.667 86.696C208.692 86.7679 208.74 86.8279 208.777 86.8998C208.922 88.9983 209.056 91.0847 209.213 93.1832C209.262 93.8786 209.213 94.6821 210.306 94.6701C211.41 94.6701 211.119 93.8307 211.216 93.2311C212.053 93.3271 212.903 93.423 213.74 93.5189C213.74 93.7108 213.74 93.9026 213.74 94.0945C213.364 94.694 213.134 95.5934 212.587 95.8452C211.119 96.5167 209.638 96.5647 208.57 94.9579C208.425 94.73 207.878 94.766 207.514 94.6701C207.478 91.7202 207.454 88.7704 207.429 85.8206C207.429 84.9213 207.32 84.1898 206.131 84.8613V84.8493Z" fill="#FCFCFC"/>
<path d="M190.79 23.7065C190.316 25.6011 190.001 27.1 189.515 28.539C189.418 28.8387 188.569 29.2225 188.277 29.1025C186.554 28.3471 184.891 27.4717 183.229 26.5844C182.974 26.4525 182.658 26.1048 182.67 25.8769C182.682 25.6371 183.022 25.3133 183.289 25.2294C185.389 24.5219 187.501 23.8145 189.625 23.2029C189.964 23.107 190.45 23.5506 190.778 23.6945L190.79 23.7065Z" fill="#F4F3F3"/>
<path d="M153.773 23.6224C154.162 23.4666 154.647 23.0828 154.987 23.1788C157.111 23.7903 159.211 24.4978 161.31 25.2173C161.589 25.3132 161.929 25.625 161.954 25.8648C161.978 26.0926 161.662 26.4404 161.407 26.5723C159.745 27.4476 158.082 28.311 156.371 29.0664C156.079 29.1983 155.266 28.9105 155.181 28.6587C154.672 27.1238 154.295 25.541 153.773 23.6104V23.6224Z" fill="#F4F3F3"/>
<path d="M203.46 122.381C202.732 122.381 202.004 122.381 201.276 122.381C199.698 122.369 199.613 122.274 200.001 120.703C200.147 120.103 200.329 119.492 200.608 118.952C201.47 117.321 203.242 116.758 204.601 117.969C205.657 118.916 206.313 120.319 207.077 121.566C207.138 121.662 206.64 122.321 206.361 122.345C205.402 122.441 204.431 122.381 203.46 122.381Z" fill="#F9F8F8"/>
<path d="M141.455 122.382C140.484 122.382 139.525 122.37 138.554 122.382C137.729 122.394 137.449 121.986 137.814 121.314C138.384 120.283 138.93 119.168 139.731 118.329C141.273 116.722 143.336 117.153 144.355 119.132C145.666 121.674 145.253 122.37 142.462 122.37C142.122 122.37 141.782 122.37 141.442 122.37L141.455 122.382Z" fill="#F9F8F8"/>
<path d="M208.497 181.306C209.808 181.306 211.119 181.33 212.429 181.306C213.255 181.294 213.546 181.678 213.534 182.445C213.534 183.176 213.473 183.824 212.502 183.824C209.686 183.824 206.883 183.824 204.067 183.812C203.036 183.812 203.023 183.033 203.205 182.385C203.315 181.977 203.788 181.39 204.14 181.354C205.584 181.234 207.041 181.306 208.497 181.306Z" fill="#F2F1F1"/>
<path d="M136.406 183.824C135.144 183.824 133.894 183.8 132.631 183.824C131.733 183.848 131.296 183.512 131.296 182.577C131.296 181.678 131.6 181.27 132.559 181.282C135.217 181.318 137.887 181.33 140.544 181.282C141.503 181.27 141.819 181.666 141.819 182.565C141.819 183.5 141.37 183.836 140.472 183.812C139.112 183.788 137.765 183.812 136.406 183.812V183.824Z" fill="#EFEFF0"/>
<path d="M190.705 114.515C191.203 114.827 191.7 115.127 192.198 115.439C191.967 115.427 191.749 115.415 191.203 115.379C192.768 117.034 194.164 118.472 195.535 119.935C196.713 121.194 196.688 121.29 195.135 122.01C192.392 123.281 192.344 123.293 191.737 120.391C191.324 118.449 191.045 116.47 190.717 114.503L190.705 114.515Z" fill="#F3F2F3"/>
<path d="M152.851 115.379C153.312 115.091 153.773 114.803 154.234 114.515C153.773 116.998 153.324 119.468 152.863 121.95C152.693 122.861 152.232 123.173 151.334 122.717C150.375 122.238 149.38 121.806 148.154 121.23C150.096 119.168 151.819 117.333 153.712 115.319C153.275 115.343 153.069 115.367 152.851 115.379Z" fill="#F2F1F1"/>
<path d="M203.885 92.3796C203.315 91.852 202.757 91.3124 202.174 90.8088C201.883 90.545 201.555 90.3172 201.24 90.0773C201.203 89.9095 201.167 89.7416 201.13 89.5857L202.66 84.6094C203.74 84.9571 204.723 85.7845 205.973 85.1969C205.9 85.4847 205.815 85.7605 205.742 86.0483C205.669 86.2402 205.597 86.42 205.536 86.6119C205.293 87.4753 205.05 88.3386 204.808 89.214C204.674 89.6936 204.529 90.1733 204.395 90.6529C204.347 90.8448 204.286 91.0366 204.237 91.2285C204.177 91.4203 204.128 91.6002 204.067 91.7921C204.007 91.9959 203.946 92.1998 203.885 92.4036V92.3796Z" fill="#FCFCFC"/>
<path d="M166.067 75.8438C165.922 75.9997 165.728 76.3834 165.582 76.3594C165.206 76.3115 164.696 76.1796 164.514 75.9158C163.761 74.8006 163.13 73.6254 162.439 72.4743C161.31 70.5797 160.157 68.6971 159.077 66.7905C158.907 66.4907 159.028 66.047 159.016 65.6633C159.441 65.7713 160.096 65.7353 160.254 65.9871C162.184 69.1288 164.041 72.3184 165.922 75.4841C165.97 75.568 165.995 75.6639 166.067 75.8438Z" fill="#EBEBEB"/>
<path d="M186.141 66.2149C185.996 66.4667 185.862 66.7066 185.717 66.9584C184.005 69.8363 182.306 72.7381 180.534 75.568C180.292 75.9637 179.612 76.0836 179.126 76.3354C179.175 75.8798 179.078 75.3282 179.284 74.9685C180.947 72.0666 182.658 69.1767 184.406 66.3109C184.624 65.9511 185.183 65.7353 185.632 65.5794C185.838 65.5075 186.166 65.7593 186.433 65.8552C186.336 65.9751 186.239 66.095 186.141 66.2029V66.2149Z" fill="#EBEBEB"/>
<path d="M207.514 94.6581C207.878 94.742 208.424 94.7181 208.57 94.9459C209.638 96.5647 211.119 96.5047 212.587 95.8332C213.133 95.5814 213.364 94.6821 213.74 94.0825C213.874 94.0825 214.007 94.0825 214.153 94.0945C214.311 94.2744 214.468 94.4662 214.614 94.6461C214.335 95.2337 214.056 95.8332 213.898 96.157C214.299 97.0443 214.602 97.7038 214.893 98.3634C212.527 98.4113 210.172 98.4473 207.805 98.4953L207.903 98.4473L207.805 98.4833C207.842 98.3514 207.878 98.2314 207.915 98.0995V97.524C207.805 97.1283 208.655 96.4088 207.514 96.3608C207.514 95.7853 207.514 95.2097 207.514 94.6341V94.6581Z" fill="white"/>
<path d="M128.832 182.493C129.245 182.961 129.718 183.369 129.997 183.872C130.143 184.136 130.046 184.712 129.828 184.939C128.99 185.791 128.068 186.57 127.182 187.362C126.126 188.309 125.665 187.194 125.058 186.726C124.293 186.126 124.803 185.671 125.313 185.251C126.199 184.52 127.073 183.776 127.971 183.045C128.189 182.865 128.444 182.745 128.832 182.493Z" fill="#EFEFF0"/>
<path d="M216.01 182.505C216.435 182.769 216.738 182.925 216.993 183.129C217.745 183.728 218.51 184.316 219.214 184.975C219.699 185.431 220.755 185.779 219.809 186.75C219.056 187.517 218.376 188.225 217.321 187.062C216.641 186.318 215.779 185.743 215.087 185.011C214.857 184.771 214.699 184.184 214.845 183.92C215.1 183.404 215.585 182.997 216.01 182.505Z" fill="#F3F2F3"/>
<path d="M94.2919 193.597C90.3354 193.645 86.3667 193.693 82.4102 193.729C77.5313 193.765 72.6524 193.777 67.7734 193.801C68.1254 193.573 68.4652 193.141 68.8172 193.141C77.0094 193.105 85.1895 193.105 93.3817 193.141C93.6851 193.141 93.9885 193.453 94.2919 193.609V193.597Z" fill="#0C0B0A"/>
<path d="M192.331 106.254C192.137 107.045 192.113 107.573 191.87 107.944C191.7 108.184 191.081 108.4 190.851 108.268C189.722 107.68 188.339 104.647 188.654 103.4C188.727 103.088 189.613 102.68 189.637 102.692C190.608 103.903 191.53 105.162 192.331 106.23V106.254Z" fill="#EDEDED"/>
<path d="M156.468 104.095C156.358 105.99 154.938 106.985 154.052 108.232C153.967 108.352 153.069 108.148 153.057 108.04C152.972 107.237 152.827 106.361 153.057 105.63C153.288 104.886 153.907 104.239 154.429 103.627C154.768 103.22 155.266 102.944 155.691 102.608C155.946 103.112 156.213 103.603 156.468 104.107V104.095Z" fill="#EBEBEB"/>
<path d="M62.5303 193.885C58.6709 193.92 54.8114 193.968 50.9399 194.004C46.6435 194.04 42.3471 194.064 38.0508 194.1C38.4392 193.873 38.8397 193.441 39.228 193.429C46.6435 193.393 54.059 193.393 61.4744 193.429C61.8264 193.429 62.1784 193.741 62.5303 193.896V193.885Z" fill="#0C0B0A"/>
<path d="M122.558 193.333C114.584 193.393 106.623 193.453 98.6489 193.513C99.1344 193.285 99.632 192.854 100.117 192.842C107.715 192.794 115.3 192.806 122.898 192.806C122.898 192.901 122.886 192.997 122.874 193.093C122.764 193.177 122.667 193.249 122.558 193.333Z" fill="#0C0B0A"/>
<path d="M191.433 166.281C191.433 166.665 191.494 167.048 191.421 167.42C191.324 167.888 191.118 168.331 190.948 168.787C190.535 168.511 190.037 168.307 189.734 167.948C188.508 166.509 188.545 165.681 189.892 164.434C190.171 164.171 190.608 164.087 190.984 163.919C191.13 164.278 191.348 164.638 191.421 165.01C191.494 165.418 191.433 165.861 191.433 166.293V166.281Z" fill="#EDEDED"/>
<path d="M154.319 163.487C154.962 164.542 155.873 165.406 155.909 166.305C155.946 167.072 154.999 167.9 154.416 168.643C154.356 168.715 153.494 168.415 153.494 168.248C153.409 166.965 153.421 165.669 153.47 164.374C153.47 164.171 153.822 163.991 154.307 163.475L154.319 163.487Z" fill="#EDEDED"/>
<path d="M205.281 75.9519C205.378 77.2469 205.499 78.554 205.572 79.861C205.609 80.5565 205.657 81.264 205.536 81.9355C205.475 82.2832 205.111 82.7269 204.796 82.8228C204.31 82.9787 203.752 82.8588 203.218 82.8708C203.436 82.1034 203.655 81.3359 203.873 80.5685C203.922 80.4006 203.982 80.2327 204.031 80.0649C204.201 79.4653 204.359 78.8538 204.529 78.2542C204.577 78.1343 204.638 78.0144 204.686 77.8945C204.638 77.8105 204.65 77.7386 204.723 77.6906C204.808 77.4628 204.88 77.235 204.965 76.9951L205.281 75.9639V75.9519Z" fill="#FCFCFC"/>
<path d="M157.257 30.7332C159.478 30.8171 161.699 30.913 163.92 30.997C163.604 31.2008 163.301 31.4286 162.985 31.6205C162.621 31.8363 162.245 32.0282 161.881 32.232C160.327 32.1241 158.774 32.0282 157.22 31.9203C157.232 31.5246 157.244 31.1289 157.269 30.7332H157.257Z" fill="#342F2E"/>
<path d="M214.905 98.3752C214.602 97.7157 214.311 97.0562 213.91 96.1688C214.068 95.8451 214.347 95.2455 214.626 94.658C215.027 94.7299 215.427 94.8019 215.828 94.8738C215.828 96.0609 215.828 97.26 215.828 98.4472C215.524 98.4232 215.209 98.4112 214.905 98.3872V98.3752Z" fill="#FCFCFC"/>
<path d="M189.273 38.2518C190.608 36.7888 191.943 35.3379 193.29 33.875C193.399 34.0908 193.521 34.2947 193.63 34.5105C193.06 35.1341 192.538 35.8415 191.894 36.3811C190.741 37.3524 190.025 38.4316 190.523 40.0025C190.11 39.4149 189.698 38.8273 189.273 38.2518Z" fill="#D6524A"/>
<path d="M151.346 33.9109C152.778 35.4218 154.198 36.9207 155.63 38.4315C155.169 38.6714 154.708 38.9232 154.246 39.163C154.089 38.6234 154.064 37.9759 153.749 37.5682C152.911 36.489 151.928 35.5177 151.006 34.4985C151.127 34.3066 151.236 34.1027 151.358 33.9109H151.346Z" fill="#D6524A"/>
<path d="M214.905 98.3752C215.209 98.3992 215.524 98.4112 215.828 98.4352C215.294 98.5311 214.76 98.735 214.226 98.723C212.089 98.687 209.953 98.5791 207.817 98.5071C210.184 98.4592 212.539 98.4232 214.905 98.3752Z" fill="#F5F5F5"/>
<path d="M202.089 98.9747C201.713 97.236 202.599 95.8211 203.315 94.3582C202.902 95.893 202.502 97.4279 202.089 98.9747Z" fill="#F5F5F5"/>
<path d="M213.643 82.5829C213.57 81.144 213.485 79.705 213.413 78.2781C213.485 79.717 213.57 81.156 213.643 82.5829Z" fill="#F5F5F5"/>
<path d="M213.315 75.1004C213.242 73.9492 213.181 72.7981 213.109 71.6589C213.181 72.8101 213.242 73.9612 213.315 75.1004Z" fill="#F5F5F5"/>
<path d="M201.13 89.5738C201.167 89.7416 201.203 89.9095 201.239 90.0654C201.094 90.7609 200.997 91.4684 200.79 92.1399C200.73 92.3557 200.378 92.4876 200.171 92.6555C200.487 91.6242 200.815 90.593 201.13 89.5618V89.5738Z" fill="#F5F5F5"/>
<path d="M211.786 60.5072C211.483 60.6391 211.179 60.771 210.888 60.9029C210.779 60.4472 210.658 59.9916 210.548 59.5359C210.961 59.8596 211.374 60.1834 211.786 60.5072Z" fill="#F5F5F5"/>
<path d="M200.572 105.018C200.135 104.507 200.317 103.839 201.118 103.016C200.936 103.687 200.754 104.359 200.572 105.018Z" fill="#F5F5F5"/>
<path d="M214.153 94.0943C214.019 94.0943 213.886 94.0943 213.74 94.0824C213.74 93.8905 213.74 93.6986 213.74 93.5068C213.825 93.0271 213.922 92.5595 214.007 92.0798C214.056 92.7513 214.104 93.4228 214.153 94.0943Z" fill="#F5F5F5"/>
<path d="M200.014 107.321C199.613 106.613 199.54 105.978 200.463 105.594C200.317 106.17 200.159 106.745 200.014 107.321Z" fill="#F5F5F5"/>
<path d="M210.196 59.2602C209.189 59.632 208.655 59.3921 208.849 58.229C209.298 58.5767 209.747 58.9125 210.196 59.2602Z" fill="#F5F5F5"/>
<path d="M207.514 96.3848C208.655 96.4327 207.818 97.1522 207.915 97.5479C207.781 97.5479 207.648 97.5479 207.502 97.5479C207.502 97.1642 207.502 96.7805 207.502 96.3968L207.514 96.3848Z" fill="#FCFCFC"/>
<path d="M207.927 57.5334C207.247 57.5814 206.652 57.5334 206.762 56.6101C207.15 56.9219 207.538 57.2217 207.927 57.5334Z" fill="#F5F5F5"/>
<path d="M205.997 71.3472C206.664 71.6589 206.64 71.9467 205.973 72.2225C205.973 71.9347 205.985 71.635 205.997 71.3472Z" fill="#F5F5F5"/>
<path d="M199.212 95.8333C199.127 96.121 199.031 96.4088 198.946 96.6846C199.031 96.3968 199.127 96.109 199.212 95.8333Z" fill="#F5F5F5"/>
<path d="M213.995 91.2164C213.753 91.1565 213.51 91.0965 213.267 91.0366C213.267 90.9646 213.267 90.8927 213.267 90.8207C213.51 90.7608 213.753 90.7008 213.983 90.6409C213.983 90.8327 213.983 91.0246 213.995 91.2284V91.2164Z" fill="#F5F5F5"/>
<path d="M205.536 86.588C205.608 86.3961 205.681 86.2163 205.741 86.0244C205.669 86.2163 205.596 86.3961 205.536 86.588Z" fill="#F5F5F5"/>
<path d="M207.502 97.5359C207.635 97.5359 207.769 97.5359 207.915 97.5359C207.915 97.7278 207.915 97.9196 207.915 98.1115C207.781 98.1235 207.648 98.1355 207.514 98.1475C207.514 97.9436 207.514 97.7398 207.514 97.5239L207.502 97.5359Z" fill="#F5F5F5"/>
<path d="M199.819 93.8186C199.746 94.0225 199.674 94.2143 199.589 94.4182C199.661 94.2143 199.734 94.0225 199.819 93.8186Z" fill="#F5F5F5"/>
<path d="M157.269 30.1936C157.269 30.3735 157.269 30.5653 157.269 30.7452C157.111 30.6732 156.953 30.6133 156.795 30.5413L157.269 30.1936Z" fill="#342F2E"/>
<path d="M204.952 76.9832C204.868 77.211 204.795 77.4388 204.71 77.6786C204.795 77.4508 204.868 77.223 204.952 76.9832Z" fill="#F5F5F5"/>
<path d="M191.893 111.686C191.797 111.674 191.7 111.662 191.603 111.637C191.7 111.65 191.797 111.662 191.893 111.686Z" fill="#F3F2F3"/>
<path d="M204.649 66.2749C204.552 66.4188 204.456 66.5747 204.347 66.7186C204.443 66.5747 204.54 66.4188 204.649 66.2749Z" fill="#F5F5F5"/>
<path d="M207.514 98.1595C207.648 98.1475 207.781 98.1355 207.915 98.1235C207.878 98.2554 207.842 98.3753 207.805 98.5073C207.708 98.3873 207.611 98.2794 207.514 98.1595Z" fill="#FCFCFC"/>
<path d="M136.697 76.1318C136.321 82.1633 135.956 87.7632 135.617 93.363C135.568 94.1185 135.447 94.706 134.488 94.6461C133.553 94.5861 133.59 93.9626 133.663 93.3031C134.233 87.6792 134.803 82.0554 135.41 76.4316C135.447 76.0478 135.835 75.6881 136.066 75.3284C136.345 75.6881 136.636 76.0478 136.697 76.1318Z" fill="#3C3A3A"/>
<path d="M145.266 109.875C145.181 109.983 145.12 110.055 145.059 110.126C144.986 110.007 144.889 109.899 144.853 109.779C144.841 109.743 144.962 109.659 145.035 109.599C145.12 109.695 145.193 109.791 145.278 109.887L145.266 109.875Z" fill="#242424"/>
<path d="M204.504 133.365C203.812 136.351 203.181 139.097 202.538 141.843C201.531 146.172 200.511 150.501 199.492 154.83C199.443 155.057 199.443 155.345 199.298 155.513C199.006 155.861 198.63 156.149 198.29 156.46C198.108 156.041 197.732 155.585 197.793 155.189C198.035 153.678 198.424 152.191 198.764 150.705C200.002 145.201 201.252 139.697 202.49 134.205C202.562 133.881 202.55 133.461 202.757 133.257C203.048 132.958 203.497 132.682 203.885 132.67C204.104 132.67 204.346 133.198 204.492 133.377L204.504 133.365Z" fill="#3A3836"/>
<path d="M147.717 156.125C147.341 156.232 146.916 156.52 146.613 156.412C146.2 156.28 145.666 155.909 145.569 155.537C144.926 153.079 144.367 150.609 143.797 148.138C142.705 143.426 141.6 138.725 140.569 134.001C140.484 133.593 140.69 132.814 140.981 132.67C141.758 132.322 142.061 132.922 142.219 133.617C143.833 140.812 145.46 148.007 147.086 155.189C147.122 155.333 147.159 155.465 147.195 155.609C147.365 155.777 147.547 155.957 147.717 156.125Z" fill="#3A3836"/>
<path d="M175.546 50.015C175.473 50.9743 175.461 51.9336 175.303 52.8809C175.243 53.2046 174.83 53.4804 174.575 53.7682C174.333 53.4684 173.884 53.1687 173.884 52.8689C173.823 50.9503 173.811 49.0317 173.896 47.1251C173.908 46.8134 174.539 46.5376 174.891 46.2378C175.17 46.5855 175.643 46.9213 175.668 47.293C175.74 48.1923 175.619 49.1037 175.57 50.015C175.57 50.015 175.571 50.015 175.558 50.015H175.546Z" fill="#3A3836"/>
<path d="M170.752 50.003C170.752 50.9623 170.813 51.9216 170.716 52.8689C170.692 53.1806 170.267 53.4564 170.024 53.7442C169.782 53.4924 169.369 53.2526 169.345 52.9768C169.138 51.0342 168.981 49.0797 168.908 47.1131C168.908 46.8373 169.502 46.2617 169.733 46.3097C170.109 46.3817 170.655 46.8133 170.704 47.1491C170.837 48.0844 170.752 49.0557 170.752 50.015V50.003Z" fill="#342F2E"/>
<path d="M211.216 93.2191C211.119 93.8186 211.41 94.646 210.305 94.658C209.201 94.658 209.262 93.8666 209.213 93.1711C209.055 91.0847 208.922 88.9862 208.776 86.8878C208.776 86.7918 208.776 86.6959 208.776 86.6C208.679 85.257 208.582 83.914 208.485 82.571C208.4 80.6164 208.279 78.6499 208.254 76.6953C208.254 76.2516 208.546 75.796 208.716 75.3523C209.007 75.772 209.492 76.1677 209.541 76.6114C209.978 80.3166 210.318 84.0339 210.694 87.7511C210.73 87.955 210.755 88.1588 210.791 88.3507C210.937 89.9695 211.094 91.6003 211.24 93.2191H211.216Z" fill="#3C3A3A"/>
<path d="M210.766 88.3508C210.73 88.1469 210.706 87.9431 210.669 87.7512C210.706 87.9551 210.73 88.1589 210.766 88.3508Z" fill="#F5F5F5"/>
<path d="M189.273 38.2517C189.686 38.8393 190.098 39.4268 190.523 40.0024C190.523 40.4581 190.523 40.9137 190.535 41.3694C190.499 41.6692 190.45 41.981 190.414 42.2807C190.305 42.6525 190.195 43.0362 190.086 43.4079C190.038 43.5398 189.977 43.6597 189.928 43.7916C189.358 45.0986 188.63 46.4417 187.064 46.4776C185.547 46.5136 184.552 45.3625 183.872 44.0914C183.375 43.1441 183.047 42.1129 182.804 41.4893C185.147 40.3262 187.21 39.2829 189.285 38.2517H189.273Z" fill="#CA2522"/>
<path d="M179.988 36.8368C179.029 36.4171 179.539 35.8295 179.842 35.3139C180.109 34.8462 180.243 34.0428 181.129 34.5584C180.753 35.3139 180.364 36.0813 179.988 36.8368Z" fill="#242424"/>
<path d="M154.235 39.1511C154.696 38.9113 155.157 38.6595 155.618 38.4197C157.608 39.391 159.611 40.3742 161.783 41.4414C161.565 42.8924 160.8 44.4872 159.368 45.7343C158.021 46.8974 157.074 46.8015 155.764 45.4585C155.618 45.2906 155.472 45.1227 155.327 44.9548C155.254 44.9309 155.218 44.8709 155.218 44.799C155.12 44.6311 155.023 44.4632 154.926 44.2833L154.914 44.2594C154.72 43.7917 154.526 43.324 154.332 42.8444V42.8324C154.283 41.7892 154.222 40.746 154.174 39.7027C154.198 39.5229 154.222 39.343 154.235 39.1631V39.1511Z" fill="#CA2522"/>
<path d="M161.88 32.2321C162.244 32.0283 162.621 31.8364 162.985 31.6206C163.312 31.4287 163.616 31.2129 163.919 30.997C163.968 30.8891 164.053 30.8651 164.162 30.9011C164.368 31.2249 164.587 31.5606 164.793 31.8844C164.38 32.1841 163.98 32.4839 163.567 32.7837C163.155 32.7837 162.73 32.7837 162.317 32.7837C162.172 32.6038 162.014 32.424 161.868 32.2321H161.88Z" fill="#242424"/>
<path d="M154.344 42.8442C154.538 43.3119 154.732 43.7795 154.926 44.2592C154.732 43.7915 154.538 43.3239 154.344 42.8442Z" fill="#D6524A"/>
<path d="M154.938 44.2712C155.035 44.4391 155.132 44.607 155.229 44.7869C155.132 44.619 155.035 44.4511 154.938 44.2712Z" fill="#D6524A"/>
<path d="M163.567 32.7837C163.98 32.4839 164.38 32.1842 164.793 31.8844C169.696 31.081 174.599 30.8891 179.491 31.8964C181.287 32.2681 181.372 32.472 180.255 33.803C178.556 35.8295 177.937 38.1917 178.131 40.7578C178.216 41.7771 177.876 42.1728 176.869 42.1608C173.823 42.1488 170.764 42.1608 167.718 42.1608C167.051 42.1608 166.371 42.1128 166.468 41.2015C166.784 37.9519 165.715 35.1939 163.555 32.7837H163.567Z" fill="#FAF9FA"/>
<path d="M208.763 86.5999C208.763 86.6958 208.763 86.7917 208.763 86.8876C208.727 86.8157 208.679 86.7557 208.655 86.6838C208.655 86.6718 208.715 86.6238 208.751 86.5999H208.763Z" fill="#F5F5F5"/>
<rect x="0.5" width="344" height="238" rx="18" stroke="white"/>
</svg>
