<svg width="73" height="73" viewBox="0 0 73 73" fill="none" xmlns="http://www.w3.org/2000/svg">
<g filter="url(#filter0_d_123_695)">
<rect x="4" width="65" height="65" rx="32.5" fill="#DF2E38"/>
<path d="M22.2929 32.2929C21.9024 32.6834 21.9024 33.3166 22.2929 33.7071L28.6569 40.0711C29.0474 40.4616 29.6805 40.4616 30.0711 40.0711C30.4616 39.6805 30.4616 39.0474 30.0711 38.6569L24.4142 33L30.0711 27.3431C30.4616 26.9526 30.4616 26.3195 30.0711 25.9289C29.6805 25.5384 29.0474 25.5384 28.6569 25.9289L22.2929 32.2929ZM50 32L23 32L23 34L50 34L50 32Z" fill="white"/>
</g>
<defs>
<filter id="filter0_d_123_695" x="0" y="0" width="73" height="73" filterUnits="userSpaceOnUse" color-interpolation-filters="sRGB">
<feFlood flood-opacity="0" result="BackgroundImageFix"/>
<feColorMatrix in="SourceAlpha" type="matrix" values="0 0 0 0 0 0 0 0 0 0 0 0 0 0 0 0 0 0 127 0" result="hardAlpha"/>
<feOffset dy="4"/>
<feGaussianBlur stdDeviation="2"/>
<feComposite in2="hardAlpha" operator="out"/>
<feColorMatrix type="matrix" values="0 0 0 0 0 0 0 0 0 0 0 0 0 0 0 0 0 0 0.25 0"/>
<feBlend mode="normal" in2="BackgroundImageFix" result="effect1_dropShadow_123_695"/>
<feBlend mode="normal" in="SourceGraphic" in2="effect1_dropShadow_123_695" result="shape"/>
</filter>
</defs>
</svg>
