<svg width="73" height="73" viewBox="0 0 73 73" fill="none" xmlns="http://www.w3.org/2000/svg">
<g filter="url(#filter0_d_123_697)">
<rect x="4" width="65" height="65" rx="32.5" fill="#DF2E38"/>
<path d="M50.7071 33.7071C51.0976 33.3166 51.0976 32.6834 50.7071 32.2929L44.3431 25.9289C43.9526 25.5384 43.3195 25.5384 42.9289 25.9289C42.5384 26.3195 42.5384 26.9526 42.9289 27.3431L48.5858 33L42.9289 38.6569C42.5384 39.0474 42.5384 39.6805 42.9289 40.0711C43.3195 40.4616 43.9526 40.4616 44.3431 40.0711L50.7071 33.7071ZM23 34L50 34L50 32L23 32L23 34Z" fill="white"/>
</g>
<defs>
<filter id="filter0_d_123_697" x="0" y="0" width="73" height="73" filterUnits="userSpaceOnUse" color-interpolation-filters="sRGB">
<feFlood flood-opacity="0" result="BackgroundImageFix"/>
<feColorMatrix in="SourceAlpha" type="matrix" values="0 0 0 0 0 0 0 0 0 0 0 0 0 0 0 0 0 0 127 0" result="hardAlpha"/>
<feOffset dy="4"/>
<feGaussianBlur stdDeviation="2"/>
<feComposite in2="hardAlpha" operator="out"/>
<feColorMatrix type="matrix" values="0 0 0 0 0 0 0 0 0 0 0 0 0 0 0 0 0 0 0.25 0"/>
<feBlend mode="normal" in2="BackgroundImageFix" result="effect1_dropShadow_123_697"/>
<feBlend mode="normal" in="SourceGraphic" in2="effect1_dropShadow_123_697" result="shape"/>
</filter>
</defs>
</svg>
