<svg width="110" height="76" viewBox="0 0 110 76" fill="none" xmlns="http://www.w3.org/2000/svg">
<rect x="0.5" y="0.5" width="109" height="74.5" rx="5.5" stroke="white"/>
<path d="M20.4747 61.5981C21.0234 61.5868 21.5721 61.5792 22.1208 61.5679C23.6525 61.5603 25.1843 61.5565 26.716 61.5452C27.9582 61.5376 29.2042 61.5187 30.4463 61.5036C30.9036 61.4961 31.3608 61.4885 31.8142 61.4772C34.3176 61.4583 36.8172 61.4394 39.3206 61.4205C39.3549 61.394 39.3854 61.3714 39.4197 61.3449C39.4197 61.3147 39.4235 61.2845 39.4273 61.2542C39.4349 60.8461 39.4501 60.4418 39.4501 60.0337C39.4501 59.7427 39.5759 59.6596 39.854 59.739C40.4942 59.9203 40.5246 59.9581 40.418 60.6081C40.376 60.8726 40.3456 61.1371 40.3113 61.3827H45.821C45.7829 61.0124 45.76 60.6988 45.7219 60.3927C45.6876 60.1206 45.7943 59.9921 46.0725 59.9997C46.1944 59.9997 46.3163 59.9997 46.4383 59.9997C47.1546 59.9997 47.4582 60.3612 47.3489 61.0842C47.3375 61.156 47.3299 61.2278 47.3223 61.2882H62.6055C62.5865 60.9935 62.5903 60.7743 62.5484 60.559C62.4721 60.1509 62.5903 59.9468 63.0399 59.9959C63.4133 60.0337 63.8934 59.9241 64.1258 60.1168C64.3087 60.268 64.1944 60.7819 64.2135 61.1673H69.6165C69.5708 60.8612 69.5251 60.5854 69.487 60.3058C69.4451 60.0073 69.7613 59.7465 70.2224 59.7087C70.6072 59.6785 70.5081 59.977 70.5158 60.1849C70.5272 60.4834 70.5158 60.7857 70.5158 61.1409C71.2816 61.1409 72.0246 61.1447 72.7638 61.1409C75.4463 61.1182 78.1288 61.0917 80.8113 61.0653C82.3354 61.0502 83.8595 61.0426 85.3837 61.0048C85.5551 61.0011 85.7837 60.8726 85.8866 60.729C86.7973 59.4631 87.6927 58.1821 88.5729 56.8974C88.7368 56.6555 88.9044 56.5497 89.2016 56.5648C89.7046 56.5913 90.2113 56.5422 90.7105 56.58C91.103 56.6102 91.2706 56.4704 91.2935 56.0963C91.3011 55.9489 91.3583 55.8091 91.4002 55.6315C91.9908 55.8544 92.5661 56.0472 93.1186 56.289C93.4501 56.4364 93.713 56.4553 93.9531 56.1605C94.1665 55.896 94.4065 55.8998 94.7152 56.0094C96.1516 56.5119 97.592 56.9918 99.1542 57.5209C98.9103 57.536 98.7846 57.5511 98.6627 57.5511C95.7668 57.5511 92.871 57.5511 89.9751 57.5435C89.6817 57.5435 89.5064 57.6267 89.354 57.8836C88.7863 58.8434 88.1919 59.7881 87.5555 60.8197C88.4319 60.8764 89.2283 60.9293 90.0208 60.9822C90.1123 60.9897 90.2037 60.9822 90.2952 60.9897C90.8769 61.0099 91.2478 60.7214 91.4078 60.1244C92.1089 60.3549 92.8176 60.5627 93.5035 60.8272C93.8807 60.9746 94.1665 60.9595 94.4294 60.6534C94.7113 60.3247 95.0352 60.3171 95.4506 60.4078C97.3938 60.8386 99.3485 61.2278 101.299 61.6321C101.353 61.6434 101.402 61.6775 101.528 61.7379C99.5581 62.1536 97.6644 62.5541 95.7706 62.9584C95.6373 62.9887 95.5001 63.0038 95.3705 63.0491C95.02 63.17 94.7228 63.1134 94.4789 62.8224C94.197 62.4861 93.8769 62.4596 93.4654 62.6221C92.8024 62.8829 92.1165 63.0831 91.404 63.3212C91.3278 63.0151 91.2554 62.7279 91.1754 62.3992C89.9865 62.471 88.8092 62.539 87.5555 62.6146C88.2186 63.6953 88.8396 64.7269 89.4874 65.7396C89.556 65.8454 89.8074 65.8756 89.9751 65.8756C92.8862 65.8832 95.7973 65.8794 98.7084 65.8756C98.8113 65.8756 98.9103 65.8756 99.0285 65.955C98.2169 66.2308 97.4053 66.5067 96.5898 66.7825C95.9688 66.9941 95.3439 67.183 94.7342 67.4173C94.4103 67.542 94.1512 67.5345 93.9302 67.2624C93.694 66.9752 93.4349 67.0092 93.1224 67.1415C92.5661 67.3795 91.9946 67.576 91.4497 67.7801C91.3125 67.4513 91.2706 67.0432 91.0496 66.8959C90.8286 66.7485 90.4247 66.8127 90.1123 66.8619C89.1368 67.0206 88.531 66.6502 88.0395 65.7887C87.3993 64.6778 86.603 63.6537 85.8561 62.607C85.7609 62.4748 85.5475 62.3501 85.3875 62.3501C80.5102 62.3349 75.633 62.3387 70.752 62.3387C70.6948 62.3387 70.6339 62.3538 70.5615 62.3614C70.4586 63.359 70.1385 64.247 69.365 64.9309C69.506 64.0769 69.887 63.2645 69.6927 62.3576H64.0534C64.2478 62.8904 64.4268 63.359 64.5793 63.8351C64.6174 63.956 64.5869 64.1034 64.5869 64.2356C64.4611 64.179 64.2935 64.1563 64.2135 64.058C63.8172 63.5819 63.459 63.0756 63.0589 62.6032C62.9522 62.4748 62.7617 62.3425 62.6093 62.3425C57.5187 62.3274 52.4281 62.3274 47.3337 62.3425C47.1813 62.3425 46.9946 62.4861 46.8841 62.6146C46.4954 63.0794 46.1449 63.5744 45.76 64.0391C45.6724 64.1412 45.4895 64.1676 45.3523 64.2281C45.3523 64.0883 45.3219 63.9409 45.3676 63.8162C45.5238 63.3514 45.7067 62.898 45.9086 62.369H40.2389C40.0903 63.2532 40.3951 64.0694 40.6961 64.9083C40.0903 64.776 39.6826 63.9409 39.3968 62.3576H12.5606C12.5454 62.6146 12.534 62.8526 12.5187 63.1209C11.2766 62.7544 10.0572 62.3992 8.72363 62.0062C10.0572 61.5792 11.2689 61.19 12.5416 60.7819C12.5416 61.0124 12.5149 61.2089 12.553 61.3903C12.5721 61.4847 12.7092 61.5528 12.7931 61.6321C14.1419 61.6245 15.4908 61.6132 16.8396 61.6019C18.0513 61.5905 19.263 61.5792 20.4785 61.5641L20.4747 61.5981Z" fill="#F8F7F7"/>
<path d="M46.4343 34.9733C46.2514 34.1873 46.0838 33.4013 45.878 32.6229C45.436 30.9603 44.9711 29.3052 44.5177 27.6463C44.4948 27.5594 44.4872 27.4574 44.4377 27.3894C44.3729 27.3025 44.2738 27.2382 44.19 27.1664C44.1214 27.2685 44.0224 27.3667 43.9919 27.4763C43.9576 27.6199 43.9843 27.7748 43.9843 27.926C43.9843 29.0142 43.9766 30.1025 43.9881 31.187C43.9919 31.5006 43.8928 31.6215 43.5689 31.614C42.9288 31.5989 42.2887 31.6026 41.6485 31.614C41.3628 31.614 41.2218 31.512 41.2408 31.2134C41.2561 31.0169 41.2142 30.8129 41.2561 30.6277C41.2827 30.5144 41.4161 30.3406 41.5075 30.3368C41.8276 30.3217 41.8657 30.1516 41.8772 29.8909C41.9648 27.6425 42.0677 25.3942 42.1553 23.1459C42.1667 22.8285 42.2544 22.6698 42.6049 22.6962C42.9364 22.7227 43.2755 22.6962 43.6109 22.7038C43.8433 22.7038 44.0376 22.6395 43.969 22.3788C43.9347 22.2541 43.7556 22.1672 43.6299 22.0727C43.6032 22.05 43.5423 22.0727 43.4965 22.0727C42.4563 22.0576 42.5401 22.05 42.4335 21.0487C42.3268 20.0058 42.6392 19.2727 43.5728 18.8003C43.6375 18.7663 43.6871 18.7021 43.7518 18.6568C44.6206 18.0257 44.392 17.8935 45.1731 18.8041C45.3522 19.012 45.4055 19.1782 45.2226 19.3936C45.2036 19.4163 45.1998 19.4503 45.1807 19.473C44.5368 20.2249 44.3844 20.9504 45.1045 21.7931C45.4817 22.2314 45.3255 22.5413 44.7692 22.7567C44.472 22.87 44.3996 23.0438 44.472 23.3121C44.8149 24.5742 45.1464 25.8363 45.516 27.0909C46.0076 28.7686 46.6134 30.4237 47.0059 32.1241C47.2611 33.2275 47.223 34.3989 47.2993 35.5438C47.3031 35.6194 47.1506 35.7819 47.0897 35.7743C46.5448 35.7026 46.2209 36.0842 45.8551 36.3563C45.5427 36.5868 45.3674 36.5868 45.2188 36.1938C44.8454 35.2075 44.4301 34.2326 44.0643 33.2426C43.8242 32.6002 44.2053 32.0372 44.4377 31.4893C44.533 31.2626 44.754 31.4779 44.8416 31.682C45.2531 32.6569 45.6722 33.628 46.0876 34.5992C46.1485 34.7428 46.2285 34.8788 46.3009 35.0186L46.4419 34.977L46.4343 34.9733ZM43.7595 24.4911C43.7366 24.4646 43.649 24.3513 43.5613 24.2379C43.4889 24.3551 43.3708 24.4646 43.3556 24.5856C43.165 26.3578 42.9898 28.13 42.8069 29.9022C42.784 30.1101 42.7726 30.3065 43.066 30.3254C43.367 30.3443 43.4051 30.1592 43.4203 29.9211C43.527 28.1565 43.6375 26.3918 43.7595 24.4911ZM46.4495 35.1244C46.4267 35.0942 46.4 35.064 46.3733 35.0337C46.3543 35.0526 46.3124 35.0791 46.3162 35.0904C46.3314 35.132 46.3581 35.166 46.381 35.2C46.4 35.1773 46.4191 35.1546 46.4457 35.1206L46.4495 35.1244Z" fill="#F8F7F7"/>
<path d="M58.8142 38.4912C58.8142 38.7331 58.8142 38.9749 58.8142 39.2167C58.8142 39.9649 58.2732 40.3012 57.5797 39.9838C57.4958 39.946 57.4196 39.8894 57.332 39.8705C56.307 39.6513 56.0632 39.0127 56.0555 38.0113C56.0441 35.3209 55.9069 32.6342 55.8041 29.9475C55.7736 29.1729 56.3947 28.7686 56.7566 28.2169C56.7833 28.1791 56.9853 28.2131 57.0767 28.266C58.5894 29.1805 59.3896 30.5332 59.5649 32.2639C59.5839 32.4566 59.5877 32.6607 59.5649 32.8534C59.4734 33.6242 59.6639 34.3044 60.1402 34.9241C60.266 35.0866 60.3307 35.336 60.3345 35.5476C60.3536 36.4998 60.346 37.4521 60.3384 38.4043C60.3384 38.5215 60.3384 38.665 60.2774 38.7482C60.1936 38.8578 60.045 38.9182 59.9268 38.9976C59.8621 38.8767 59.7516 38.7595 59.7439 38.6348C59.7211 38.2267 59.7744 37.8148 59.7173 37.4143C59.6944 37.248 59.4925 37.0062 59.34 36.9797C59.0886 36.9382 58.8218 37.0667 58.8142 37.403C58.8066 37.7657 58.8142 38.1285 58.8142 38.4912Z" fill="#FBFBFB"/>
<path d="M53.9903 34.3498C53.9407 35.8877 53.8798 37.4294 53.8455 38.9674C53.8379 39.2583 53.7273 39.4057 53.4682 39.5039C53.1139 39.64 52.7557 39.7798 52.428 39.9649C52.0965 40.1501 51.8184 40.1199 51.4907 39.9574C51.2506 39.8365 51.1516 39.7004 51.1592 39.4359C51.1744 38.8464 51.163 38.257 51.163 37.6675C51.163 37.2027 50.9611 36.9269 50.6143 36.9571C50.1533 36.9986 50.199 37.3538 50.199 37.6713C50.199 37.9887 50.218 38.3061 50.1952 38.6235C50.1876 38.7482 50.0885 38.8691 50.0313 38.99C49.898 38.8842 49.7456 38.7973 49.6465 38.6688C49.5931 38.6008 49.6274 38.4648 49.6274 38.359C49.6274 37.5428 49.6465 36.7266 49.616 35.9104C49.597 35.4229 49.6732 34.9846 49.997 34.6029C50.3552 34.1835 50.439 33.696 50.3895 33.167C50.2638 31.8142 50.6105 30.5786 51.464 29.5206C51.8374 29.0596 52.3404 28.6968 52.7938 28.3C53.0262 28.096 53.2244 28.1451 53.392 28.4096C53.5864 28.7157 53.8264 28.9953 54.0093 29.309C54.0931 29.4525 54.1351 29.6453 54.1312 29.8153C54.097 31.3268 54.0436 32.8345 53.9979 34.3422C53.9979 34.3422 53.9941 34.3422 53.9903 34.3422V34.3498Z" fill="#FCFCFC"/>
<path d="M55.0039 27.4309C55.9221 27.6954 56.3146 27.1777 56.7033 26.4485C57.5911 24.7631 58.5589 23.1194 59.5039 21.4643C59.6258 21.2527 59.7058 21.0902 59.4238 20.9504C59.3705 20.924 59.3019 20.8182 59.3172 20.769C59.4467 20.3647 59.4848 19.8584 59.7553 19.5901C60.1364 19.216 60.7155 19.1442 61.2528 19.3709C61.9844 19.6808 62.2282 20.3005 61.8815 20.9995C61.0356 22.7075 60.1859 24.4117 59.321 26.1084C59.2257 26.2935 59.1952 26.6525 58.8332 26.49C58.456 26.3238 58.2655 25.8514 58.4179 25.5491C59.2257 23.9583 60.0335 22.3674 60.8413 20.7766C60.8832 20.6972 60.967 20.6028 60.9518 20.5348C60.9175 20.4063 60.8222 20.2967 60.7536 20.1758C60.666 20.2438 60.5288 20.2929 60.4984 20.3798C59.7172 22.6093 58.2503 24.476 57.1834 26.5543C56.8252 27.2533 56.4022 27.9184 56.025 28.6099C55.8879 28.8631 55.7354 28.9878 55.423 28.9878C54.1389 28.9878 54.1503 28.9953 53.5216 27.8768C52.2871 25.6927 51.0297 23.5162 49.7913 21.3321C49.6542 21.0865 49.6122 20.7917 49.4903 20.5348C49.4255 20.3987 49.2807 20.2967 49.1702 20.1833C49.1321 20.3534 49.0178 20.5574 49.075 20.6859C49.3608 21.3207 49.6884 21.9329 50.0047 22.5526C50.5115 23.5502 51.0183 24.5478 51.525 25.5453C51.6774 25.8476 51.3688 26.49 51.0297 26.5089C50.9268 26.5165 50.763 26.3767 50.7096 26.2633C49.8904 24.646 49.0826 23.0212 48.271 21.3963C48.2177 21.2867 48.1719 21.1734 48.111 21.0713C47.8862 20.6972 47.6995 20.3345 48.0386 19.915C48.3815 19.4918 48.7778 19.2122 49.3608 19.2613C50.1838 19.3331 50.7477 19.9755 50.6563 20.7539C50.6563 20.7842 50.6563 20.8295 50.6372 20.8408C50.0542 21.1998 50.5115 21.5437 50.6829 21.8498C51.6203 23.5426 52.5957 25.2166 53.5216 26.9132C53.7426 27.3213 54.0017 27.4952 54.4514 27.4271C54.6304 27.4007 54.8172 27.4234 55 27.4234L55.0039 27.4309Z" fill="#F4F3F3"/>
<path d="M64.7086 39.4926C65.0439 39.4926 65.3793 39.5077 65.7146 39.4888C66.0651 39.4661 66.1794 39.606 66.1299 39.9423C65.9203 41.329 65.7527 42.7196 65.5126 44.1026C65.3373 45.0964 65.1163 46.0865 64.8382 47.0576C64.6439 47.734 64.3238 48.3764 64.0456 49.0301C63.6341 50.0012 63.3674 51.0026 63.3483 52.0568C63.3407 52.4347 63.2378 52.5896 62.8301 52.4687C62.4224 52.344 62.0033 52.2684 61.588 52.1702C61.3632 52.1135 61.245 52.0115 61.3517 51.7508C62.8568 47.9456 63.2302 43.9628 63.1921 39.9234C63.1921 39.5946 63.3102 39.4926 63.6113 39.5001C63.9771 39.5115 64.3428 39.5001 64.7086 39.5001V39.4926ZM65.0478 42.5231C65.002 42.4664 64.9258 42.2964 64.8572 42.3002C64.7353 42.304 64.5943 42.3909 64.5029 42.4853C64.4381 42.5496 64.4419 42.6818 64.4191 42.7839C64.0266 44.5183 63.6379 46.2527 63.2493 47.9834C63.1426 48.4557 63.0207 48.9205 62.9445 49.3966C62.9254 49.5175 63.0435 49.6611 63.1007 49.7972C63.2074 49.6989 63.3255 49.6082 63.4169 49.4986C63.4627 49.4457 63.4588 49.355 63.4779 49.2833C63.798 47.9191 64.118 46.555 64.4343 45.1909C64.6362 44.3256 64.8344 43.4602 65.0516 42.5193L65.0478 42.5231Z" fill="#F6F6F6"/>
<path d="M46.7507 41.6011C46.8688 44.6732 47.2156 47.7075 48.1948 50.6436C48.3206 51.0139 48.4501 51.3842 48.6025 51.747C48.7054 51.9813 48.6216 52.0946 48.4082 52.1475C47.9357 52.2684 47.4632 52.378 46.9907 52.4914C46.625 52.5783 46.6326 52.3214 46.6211 52.0909C46.5716 51.0404 46.3925 50.0088 45.9124 49.0717C44.8455 46.9707 44.5293 44.6846 44.1673 42.406C44.0377 41.586 43.9577 40.7623 43.8244 39.9423C43.771 39.6097 43.8853 39.4964 44.2016 39.4964C44.9179 39.5002 45.6343 39.5077 46.3468 39.4964C46.6745 39.4888 46.7621 39.6286 46.7545 39.9347C46.7355 40.494 46.7507 41.0532 46.7507 41.6087V41.6011ZM47.2232 49.6989C47.1698 49.646 47.1127 49.5893 47.0593 49.5364C47.0479 49.4911 47.0327 49.4495 47.025 49.4042C46.5145 47.137 46.0039 44.8735 45.4971 42.6063C45.4476 42.3871 45.3523 42.1982 45.1084 42.3078C45.017 42.3493 44.9484 42.5949 44.9789 42.7272C45.3066 44.216 45.6495 45.6973 45.9924 47.1823C46.1715 47.9607 46.343 48.7429 46.5487 49.5138C46.5792 49.6309 46.7469 49.748 46.8764 49.7896C46.9717 49.8198 47.1051 49.7329 47.2232 49.6989Z" fill="#F7F6F6"/>
<path d="M57.13 14.3339C57.2671 14.5757 57.309 14.7987 57.2176 15.0934C57.1604 15.2861 57.2786 15.5997 57.4234 15.7698C57.6748 16.0645 58.0178 16.2837 58.2997 16.5558C58.6389 16.8807 58.6198 17.1377 58.2426 17.4173C58.0368 17.5685 57.7892 17.6591 57.572 17.799C57.05 18.1315 56.5127 18.4413 56.025 18.823C55.362 19.3445 55.0419 20.0397 55.1829 20.8975C55.221 21.1356 55.1829 21.3207 54.92 21.2754C54.8209 21.2603 54.6761 21.026 54.6914 20.9088C54.798 20.07 54.5275 19.3785 53.8798 18.8608C53.4111 18.4867 52.8891 18.1693 52.3861 17.8405C52.1842 17.7083 51.9517 17.6251 51.746 17.5004C51.2316 17.1793 51.2087 16.8694 51.666 16.4651C51.9174 16.2459 52.2146 16.0645 52.4166 15.8076C52.5614 15.6186 52.5881 15.339 52.6643 15.0972C52.4852 14.4548 52.729 14.1412 53.4111 14.1412C54.4589 14.1412 55.5068 14.1298 56.5508 14.1487C56.7413 14.1487 56.9318 14.2696 57.1262 14.3377L57.13 14.3339ZM55.9564 16.261C55.9564 16.261 55.9564 16.261 55.9602 16.261C55.9754 15.9738 56.0174 15.6867 55.9907 15.4033C55.9792 15.2861 55.8306 15.1803 55.7468 15.0707C55.6401 15.1614 55.442 15.2521 55.4344 15.3503C55.4039 15.9512 55.4077 16.5595 55.4306 17.1604C55.4306 17.2586 55.5715 17.3493 55.6477 17.4438C55.7278 17.3493 55.8573 17.2662 55.8764 17.1641C55.9259 16.8694 55.9297 16.5633 55.9526 16.261H55.9564ZM54.4513 16.2572C54.4513 15.9549 54.478 15.6526 54.4361 15.3541C54.4208 15.2483 54.2494 15.1123 54.1312 15.0896C54.0588 15.0745 53.8683 15.2559 53.8721 15.3428C53.895 15.9587 53.9445 16.5747 54.0093 17.1906C54.0169 17.2775 54.1503 17.3531 54.2227 17.4324C54.2989 17.3417 54.4323 17.2548 54.4399 17.1566C54.4704 16.8581 54.4513 16.5558 54.4475 16.2535L54.4513 16.2572Z" fill="#F8F7F7"/>
<path d="M45.3904 23.2479C45.478 23.0778 45.5657 22.8171 45.7257 22.6093C46.1334 22.084 46.5792 21.5852 47.006 21.0713C47.2117 20.8257 47.3794 20.8484 47.5242 21.128C47.9624 21.9707 48.412 22.8095 48.8311 23.6673C48.8845 23.7807 48.8273 24.0338 48.7282 24.1208C48.3434 24.4608 48.2443 24.8614 48.2519 25.364C48.2786 27.7823 48.2672 30.2007 48.2519 32.6153C48.2519 32.774 48.1224 32.9365 48.0538 33.0952C47.9395 32.963 47.7642 32.8496 47.7261 32.6984C46.9679 29.7322 46.2287 26.7621 45.4856 23.792C45.4475 23.6446 45.4361 23.4935 45.3942 23.2479H45.3904Z" fill="#F9F8F8"/>
<path d="M61.7099 28.8215C61.7099 27.6576 61.6908 26.4938 61.7213 25.3337C61.7327 24.8614 61.6489 24.4722 61.2679 24.1774C61.0355 23.9961 61.0278 23.8071 61.1688 23.5502C61.5956 22.768 61.9995 21.9744 62.4034 21.1771C62.5672 20.8559 62.7425 20.8106 62.9749 21.1016C63.4398 21.6759 63.9275 22.239 64.3581 22.8398C64.4876 23.0212 64.5524 23.3348 64.499 23.554C63.9542 25.9043 63.3788 28.2471 62.8073 30.5937C62.6358 31.2965 62.4529 31.9956 62.2471 32.6871C62.2014 32.842 62.0376 32.963 61.9271 33.099C61.8547 32.9441 61.7251 32.7891 61.7213 32.6342C61.7061 31.3646 61.7137 30.0987 61.7099 28.829V28.8215Z" fill="#FBFBFB"/>
<path d="M64.6325 26.6412L64.6439 26.6109C64.8116 26.6109 64.9869 26.6449 65.1393 26.5958C65.2422 26.5618 65.3527 26.422 65.3717 26.3162C65.4098 26.1046 65.3946 25.8816 65.3831 25.6625C65.3603 25.2506 65.3222 24.8425 65.2917 24.4306C65.3031 24.3702 65.3146 24.3097 65.326 24.2455C65.345 24.2077 65.3603 24.1699 65.3793 24.1321C65.3984 24.049 65.4212 23.9696 65.4403 23.8865C65.4555 23.7958 65.4708 23.7051 65.486 23.6144C65.4936 23.4935 65.5013 23.3726 65.5089 23.2517C65.7184 23.1647 65.7261 23.0741 65.5165 22.9758C65.4517 22.9154 65.3984 22.8247 65.3222 22.802C64.5258 22.545 64.5449 22.1521 64.9983 21.521C65.0288 21.4757 65.0593 21.4265 65.0936 21.3812C65.1621 21.2792 65.2307 21.1771 65.2955 21.0751C65.3222 21.0411 65.3527 21.0033 65.3793 20.9693C65.3679 20.7804 65.4022 20.5763 65.3298 20.4101C65.1926 20.0889 64.9945 19.7904 64.823 19.4805C64.7963 19.4389 64.7697 19.3936 64.743 19.352C64.7125 19.2916 64.682 19.2349 64.6516 19.1744C64.6516 19.1329 64.6439 19.0913 64.6439 19.0497L65.204 18.3507C65.2955 18.2902 65.3869 18.2297 65.4784 18.1693C65.5698 18.2222 65.6613 18.2789 65.7527 18.3318C65.7184 18.6227 65.9051 18.6378 66.1185 18.6227C66.2138 18.6983 66.3129 18.7701 66.4081 18.8457C66.3471 19.2122 66.5148 19.284 66.8311 19.1706C66.8692 19.2009 66.9035 19.2273 66.9416 19.2576C66.9759 19.4011 67.014 19.5447 67.0482 19.6883C67.1435 19.6468 67.2388 19.6052 67.3302 19.5636C67.3836 19.6921 67.4788 19.8168 67.4826 19.9491C67.4979 20.5196 67.475 21.0902 67.4941 21.6608C67.5055 21.9858 67.3721 22.0878 67.0673 22.0689C66.8272 22.0538 66.572 22.0274 66.3433 22.0803C66.1985 22.1143 66.0804 22.2843 65.9547 22.3939C66.088 22.4959 66.2138 22.6735 66.3586 22.6924C66.7625 22.7378 67.174 22.7189 67.5817 22.7264C67.6236 22.7491 67.6693 22.7718 67.7112 22.7944C67.7227 22.8889 67.7379 22.9834 67.7493 23.0778C67.7722 23.4406 67.7913 23.8033 67.8141 24.1623C67.8256 24.4949 67.8332 24.8274 67.8446 25.1637C67.8675 25.6171 67.8941 26.0706 67.917 26.5202C67.9246 26.7923 67.9284 27.0644 67.9361 27.3402C67.9589 27.7332 67.9818 28.1262 68.0046 28.5192C68.0123 28.7006 68.0161 28.8782 68.0237 29.0595C67.9475 29.0784 67.8713 29.0973 67.7989 29.1162C67.7989 29.1389 67.7989 29.1616 67.7989 29.1842C67.8751 29.2031 67.9513 29.222 68.0275 29.2409C68.0275 29.3316 68.0275 29.4223 68.0313 29.5168C68.0046 29.6679 67.9742 29.8153 67.9475 29.9664C67.6846 29.9362 67.4178 29.906 67.1549 29.8757C67.1092 29.3656 67.0597 28.8517 67.014 28.3416L66.9835 28.1527C66.8654 26.9813 66.7549 25.8098 66.6215 24.6422C66.6063 24.5024 66.45 24.3777 66.3624 24.2455C66.3129 24.3853 66.2176 24.5289 66.2176 24.6687C66.2252 25.2846 66.2633 25.9043 66.29 26.5202C66.0766 26.5769 65.8594 26.6261 65.646 26.6903C65.3184 26.7885 65.2917 26.951 65.5546 27.2344C65.5394 27.2684 65.5241 27.3024 65.5051 27.3365C65.1126 27.5216 64.804 27.2647 64.4648 27.1513C64.4991 27.0304 64.5334 26.9095 64.5639 26.7885C64.583 26.7394 64.6058 26.6865 64.6249 26.6374L64.6325 26.6412Z" fill="white"/>
<path d="M61.63 11.3752C62.1749 12.146 62.213 14.1147 61.6757 14.7722C60.7384 15.921 58.696 15.9701 57.7206 14.8402C57.5453 14.6362 57.4081 14.4019 57.2519 14.179C57.0195 13.4723 57.1567 12.7846 57.351 12.1007C57.4691 11.8626 57.591 11.6208 57.7092 11.3827C58.0178 10.6761 58.5741 10.4569 59.3095 10.5741C59.4124 10.5892 59.5191 10.5627 59.6219 10.5552C59.9915 10.5892 60.384 10.5627 60.7307 10.6685C61.0203 10.7554 61.2604 10.9973 61.5195 11.1711C61.1004 11.6321 60.6812 12.0893 60.2583 12.5503C59.6067 12.8753 58.9551 13.2041 58.2235 13.5706C58.3036 13.7671 58.4026 14.0921 58.5589 14.3906C58.7684 14.7911 59.0809 15.1539 59.561 15.1425C60.0525 15.1312 60.2849 14.7118 60.4602 14.2961C60.4755 14.2545 60.4945 14.2168 60.5097 14.1752C60.544 14.058 60.5783 13.9371 60.6126 13.82C60.6241 13.7255 60.6393 13.6273 60.6507 13.5328C60.6507 13.3892 60.6507 13.2456 60.6469 13.102C60.4907 12.6108 60.7155 12.2707 61.0775 11.9609C61.2794 11.7908 61.4433 11.5679 61.6224 11.3714L61.63 11.3752Z" fill="#FBF8F8"/>
<path d="M52.2147 14.8176C51.2926 15.7358 50.2257 15.9021 49.0445 15.3919C48.4006 15.1161 47.9776 14.6589 47.8824 13.9447C47.7604 13.0491 47.7795 12.1762 48.252 11.3676C48.5415 11.6888 48.8464 11.9949 49.1131 12.335C49.216 12.4634 49.2198 12.6675 49.2693 12.8375C49.2617 12.8942 49.2541 12.9509 49.2503 13.0076C49.2655 13.3363 49.2846 13.6651 49.2998 13.9938C49.3608 14.1487 49.4217 14.2961 49.4827 14.4435V14.451C49.517 14.5039 49.5475 14.5568 49.5779 14.6135C49.5779 14.6362 49.5894 14.6551 49.6122 14.6626C49.658 14.7155 49.7037 14.7684 49.7494 14.8213C50.1571 15.2446 50.4581 15.2748 50.8811 14.9083C51.3345 14.5191 51.5707 14.0127 51.6393 13.5555C50.9573 13.2192 50.3286 12.9131 49.7037 12.6032C49.2541 12.1271 48.8083 11.6548 48.3586 11.1787C48.6406 10.9935 48.9188 10.8083 49.2007 10.6232C49.3531 10.6005 49.5094 10.5778 49.6618 10.5552C49.8409 10.5552 50.0199 10.5552 50.199 10.5552C50.6868 10.5892 51.1745 10.6194 51.6622 10.6534C51.7079 10.7101 51.7575 10.7668 51.8032 10.8272C51.9632 11.0993 52.1347 11.3676 52.2757 11.6472C52.8167 12.7128 53.0263 13.7784 52.2109 14.8176H52.2147Z" fill="#FBF8F8"/>
<path d="M64.0913 57.2601C63.5274 57.4453 63.1578 57.0939 62.8568 56.5497C62.5939 56.0736 62.3119 55.5975 61.9575 55.1856C61.3936 54.5319 61.306 53.7951 61.3669 52.9902C61.386 52.7181 61.4736 52.5972 61.7556 52.6426C62.2052 52.7143 62.6663 52.7521 63.1083 52.8579C63.2531 52.8919 63.4055 53.062 63.4702 53.2094C64.0151 54.4072 64.5333 55.6164 65.0706 56.8143C65.2078 57.1166 65.162 57.2753 64.7924 57.2564C64.5943 57.245 64.3962 57.2564 64.0875 57.2564L64.0913 57.2601Z" fill="#F9F8F8"/>
<path d="M45.8667 57.2601C44.5903 57.2639 44.6703 57.3357 45.1161 56.3155C45.5505 55.3179 46.0039 54.3278 46.4268 53.3265C46.5602 53.0129 46.724 52.8353 47.086 52.8164C47.4632 52.7975 47.8405 52.7106 48.2139 52.6463C48.4692 52.601 48.5721 52.6917 48.5835 52.9524C48.614 53.7421 48.614 54.5017 48.0234 55.1554C47.6614 55.5559 47.3832 56.0396 47.1241 56.5157C46.8193 57.0674 46.4649 57.4604 45.8705 57.2564L45.8667 57.2601Z" fill="#FAF9FA"/>
<path d="M50.2181 10.0148C50.8392 9.67094 51.4602 9.31952 52.0851 8.98699C52.1842 8.93409 52.3214 8.93787 52.4395 8.93787C54.097 8.93787 55.7545 8.93409 57.4082 8.93787C57.5834 8.93787 57.774 8.97565 57.9302 9.05501C58.4065 9.28551 58.879 9.53113 59.3324 9.80319C59.4619 9.87877 59.5267 10.0601 59.622 10.1962C58.9323 10.2075 58.2274 10.302 57.5491 10.2075C55.8193 9.96946 54.1008 9.8901 52.3785 10.2377C52.3442 10.2264 52.3176 10.2377 52.3023 10.268C51.605 10.2415 50.9077 10.2113 50.2104 10.1848V10.1886C50.2104 10.1319 50.2104 10.0715 50.2104 10.0148H50.2181Z" fill="#F6F6F6"/>
<path d="M51.0679 16.1515C50.7554 17.0886 50.8392 17.338 51.6013 17.8216C51.868 17.9917 52.15 18.1466 52.4396 18.2751C53.335 18.6643 53.9523 19.3256 54.3714 20.1833C54.4248 20.2967 54.3866 20.4516 54.3905 20.5877C54.2114 20.5574 53.9904 20.5839 53.8608 20.4856C53.697 20.3685 53.6208 20.1418 53.4874 19.9793C53.0416 19.4465 52.4891 19.0989 51.7728 19.0535C51.106 19.0119 50.4353 18.9817 49.7685 18.9137C49.5856 18.8948 49.3608 18.7852 49.2541 18.6454C48.915 18.1995 48.6216 17.7234 48.3168 17.2511C48.1339 16.9677 48.2673 16.7031 48.5911 16.7598C49.1894 16.8619 49.6466 16.6125 50.1343 16.3442C50.3858 16.2081 50.7135 16.2157 51.0717 16.1477L51.0679 16.1515Z" fill="#F6F6F6"/>
<path d="M58.8789 16.1439C59.199 16.2232 59.5534 16.2384 59.8315 16.3933C60.2811 16.6427 60.7041 16.8505 61.2452 16.7636C61.6071 16.7069 61.7519 16.9601 61.5614 17.2624C61.2566 17.7461 60.9441 18.2335 60.605 18.6945C60.5174 18.8154 60.3154 18.9061 60.1592 18.9212C59.5076 18.9817 58.8561 19.0119 58.2045 19.0459C57.29 19.0988 56.6499 19.5825 56.1545 20.3043C56.105 20.3798 56.0707 20.5008 56.0021 20.5234C55.8421 20.5725 55.6668 20.5725 55.4954 20.5914C55.4954 20.4554 55.4573 20.3005 55.5106 20.1909C55.9221 19.3558 56.5127 18.6945 57.3967 18.3091C57.7816 18.1428 58.1512 17.9199 58.4941 17.6743C59.0999 17.2397 59.1533 16.9639 58.8332 16.3102L58.8827 16.1477L58.8789 16.1439Z" fill="#F7F6F6"/>
<path d="M68.7097 34.0815C68.7097 34.6407 68.6944 35.1962 68.7135 35.7555C68.7249 36.0577 68.6411 36.1862 68.3134 36.1938C67.1779 36.2278 67.1817 36.2353 66.9302 35.1168C66.7283 34.2213 66.5225 33.3257 66.2977 32.4377C66.2139 32.0977 66.2977 31.9578 66.6597 31.9692C67.1741 31.9843 67.6923 31.9881 68.2105 31.9692C68.5763 31.9541 68.7401 32.0636 68.7173 32.4566C68.6868 32.997 68.7097 33.5411 68.7097 34.0853V34.0815Z" fill="#FAF9FA"/>
<path d="M41.2446 34.089C41.2446 33.5147 41.2561 32.9441 41.2408 32.3697C41.2332 32.075 41.3551 31.9616 41.6447 31.9692C42.2086 31.9767 42.7688 31.9767 43.3327 31.9692C43.6299 31.9692 43.748 32.075 43.6718 32.3848C43.3936 33.5562 43.1307 34.7314 42.8564 35.9028C42.8373 35.9859 42.784 36.1295 42.7421 36.1295C42.2772 36.1446 41.8086 36.1446 41.3437 36.1182C41.3056 36.1182 41.2522 35.8839 41.2484 35.7592C41.237 35.2 41.2446 34.6445 41.2446 34.0852V34.089Z" fill="#F8F8F9"/>
<path d="M52.3822 10.2378C54.1045 9.89389 55.823 9.96947 57.5529 10.2075C58.2311 10.302 58.9322 10.2075 59.6257 10.1962C59.6257 10.3171 59.6257 10.438 59.6257 10.5589C59.519 10.5665 59.4123 10.593 59.3132 10.5778C58.5778 10.4607 58.0215 10.6799 57.7129 11.3865C57.4347 11.224 57.3928 11.481 57.309 11.6245C57.2176 11.787 57.0575 11.9722 57.3547 12.1044C57.1604 12.7884 57.0232 13.4761 57.2557 14.1827C57.2137 14.2319 57.1718 14.281 57.1299 14.3339C56.9394 14.2696 56.7489 14.1487 56.5546 14.1449C55.5067 14.1261 54.4627 14.1374 53.4148 14.1374C52.7328 14.1374 52.4889 14.451 52.668 15.0934C52.5156 15.0027 52.3632 14.9083 52.2146 14.8176C53.03 13.7784 52.8204 12.7128 52.2794 11.6472C52.1384 11.3676 51.9669 11.0993 51.8069 10.8272C51.9364 10.8272 52.0698 10.8272 52.1993 10.8272C52.8738 11.5868 53.2129 12.4559 53.1138 13.4799C53.0872 13.7671 53.2967 13.7822 53.5063 13.7822C54.4627 13.7822 55.4229 13.7822 56.3793 13.7822C56.6955 13.7822 56.7984 13.6613 56.7756 13.3401C56.7146 12.5314 56.9089 11.787 57.4424 11.1484C57.7929 10.729 57.7662 10.6647 57.2023 10.5476C55.6629 10.2302 54.1236 10.2907 52.588 10.5438L52.3899 10.234L52.3822 10.2378Z" fill="#342F2E"/>
<path d="M63.4551 35.1433C63.5656 35.0261 63.718 34.9241 63.7828 34.7843C64.2324 33.7792 64.6553 32.7627 65.105 31.7538C65.1621 31.6215 65.3031 31.5233 65.4022 31.4061C65.4936 31.527 65.6079 31.6404 65.6727 31.7727C66.0309 32.5209 66.0194 33.2426 65.6346 34.0021C65.2879 34.6861 65.0554 35.4267 64.7658 36.1371C64.583 36.5943 64.5106 36.6094 64.1181 36.3449C63.7371 36.088 63.4246 35.6988 62.8797 35.763C62.8188 35.7705 62.6702 35.5552 62.6702 35.4456C62.6702 35.1017 62.7197 34.7579 62.754 34.414C62.8035 34.6898 62.8569 34.9657 62.9293 35.3511C63.0969 35.2831 63.2798 35.2113 63.4627 35.1395L63.4551 35.1433Z" fill="#F5F5F5"/>
<path d="M63.4551 35.1433C63.2722 35.2151 63.0893 35.2869 62.9216 35.3549C62.8492 34.9695 62.7997 34.6936 62.7463 34.4178C62.7692 34.1457 62.7883 33.8736 62.8111 33.5978L62.834 32.963C62.8454 32.7816 62.8606 32.6002 62.8721 32.4188C62.9026 32.3017 62.9292 32.1846 62.9597 32.0674L63.0397 31.784C63.0626 31.7235 63.0855 31.6631 63.1083 31.6026C63.1731 31.391 63.2379 31.1794 63.3026 30.964C63.3293 30.8733 63.3598 30.7826 63.3865 30.6957C63.4246 30.5484 63.4665 30.3972 63.5046 30.2499C63.5275 30.1856 63.5503 30.1252 63.577 30.0609C63.6151 29.94 63.6494 29.8153 63.6875 29.6944C63.7561 29.6415 63.8628 29.5999 63.8818 29.5319C63.9466 29.3203 63.9771 29.0973 64.0228 28.8782C64.1219 28.9537 64.2247 29.0255 64.3162 29.1087C64.4991 29.2712 64.6744 29.4412 64.8535 29.6037C64.8268 29.6906 64.8001 29.7813 64.7734 29.8682C64.7582 29.9287 64.7468 29.9891 64.7315 30.0496C64.7125 30.11 64.6934 30.1705 64.6706 30.231C64.4457 30.692 64.1714 31.1378 64.2857 31.6858C64.2438 31.8671 64.2019 32.0485 64.16 32.2299C64.1066 32.4113 64.0571 32.5927 64.0037 32.774C63.9961 32.8345 63.9885 32.895 63.9771 32.9554C63.7256 33.2174 63.6684 33.4278 63.8056 33.5865C63.7942 33.6469 63.7827 33.7074 63.7713 33.7678C63.4817 33.8888 63.5046 34.0852 63.6303 34.312C63.6189 34.3724 63.6075 34.4329 63.5922 34.4933C63.577 34.5538 63.5579 34.6143 63.5427 34.6747C63.5122 34.8297 63.4779 34.9808 63.4474 35.1357L63.4551 35.1433Z" fill="white"/>
<path d="M61.0926 32.8043C60.9859 32.6456 60.9021 32.5284 60.8297 32.4037C60.1858 31.3419 59.5494 30.2801 58.8979 29.222C58.7683 29.0142 58.7454 28.8631 58.9017 28.6552C59.1303 28.3529 59.3056 28.0166 59.5266 27.7068C59.7018 27.4612 59.9038 27.4801 59.98 27.771C60.3991 29.3921 60.7992 31.0169 61.2031 32.6418C61.2069 32.6607 61.1726 32.6871 61.0926 32.8005V32.8043Z" fill="#F4F3F3"/>
<path d="M48.7588 32.7098C48.7778 32.5889 48.7893 32.4642 48.8198 32.3432C49.1894 30.8695 49.559 29.3921 49.94 27.9221C49.9743 27.7899 50.0848 27.6803 50.161 27.5594C50.2753 27.6425 50.401 27.7143 50.5001 27.8163C51.1936 28.5305 51.2431 29.2145 50.5877 30.042C50.001 30.7826 49.5856 31.6555 49.0903 32.4679C49.0255 32.5737 48.9455 32.6644 48.8693 32.7627C48.8312 32.7476 48.7969 32.7287 48.7588 32.7136V32.7098Z" fill="#F3F2F3"/>
<path d="M55.0343 22.4808C55.3048 22.5148 55.6515 22.5526 55.9945 22.6055C56.4517 22.6773 56.7146 23.2063 56.4746 23.5842C56.425 23.6598 56.265 23.7278 56.1736 23.7089C55.3429 23.5426 54.5161 23.5464 53.6854 23.7089C53.4263 23.7618 53.3349 23.6409 53.3234 23.3915C53.2891 22.7189 53.2929 22.7 53.9598 22.5828C54.0931 22.5602 54.2303 22.5375 54.3636 22.5224C54.5618 22.5035 54.7561 22.4959 55.0305 22.477L55.0343 22.4808Z" fill="#F4F3F3"/>
<path d="M54.9696 23.8033C55.3621 23.86 55.7507 23.9318 56.1432 23.9696C56.4328 23.9998 56.5242 24.1321 56.5204 24.4117C56.5204 25.0957 56.5013 25.0843 55.8345 25.0239C55.2211 24.971 54.5962 25.0201 53.9751 25.0239C53.7312 25.0239 53.3731 25.243 53.3388 24.7858C53.2892 24.1397 53.2968 23.9847 53.7884 23.9545C54.1808 23.9318 54.5733 23.8562 54.9696 23.8033Z" fill="#F2F1F1"/>
<path d="M48.8312 36.8588C48.3206 37.1196 47.81 37.3841 47.2918 37.6372C47.0975 37.7317 46.1258 37.2669 46.103 37.0629C46.0954 36.976 46.1868 36.8361 46.2744 36.7908C46.8003 36.5263 47.3375 36.2807 47.8672 36.0275C47.9739 35.9859 48.0844 35.9444 48.191 35.9028C48.4959 35.8272 48.8007 35.7479 49.1017 35.6723C49.1551 35.7932 49.2084 35.9141 49.2617 36.0351C49.2617 36.2202 49.2617 36.4016 49.2617 36.5868C49.117 36.6774 48.9722 36.7681 48.8274 36.8588H48.8312Z" fill="#F9F8F8"/>
<path d="M60.7154 36.5868C60.7078 36.3638 60.6697 36.1371 60.7078 35.9217C60.7231 35.8272 60.8945 35.763 60.9974 35.6837C61.0279 35.6874 61.0584 35.6912 61.0889 35.6988C61.3022 35.763 61.5156 35.8272 61.729 35.8915C61.8395 35.9368 61.95 35.986 62.0605 36.0313C62.6854 36.3147 63.3103 36.5943 63.9466 36.8853C63.4817 37.5995 62.8873 37.7695 62.2663 37.4521C61.9043 37.2669 61.5461 37.0742 61.1841 36.8853C61.0279 36.787 60.8717 36.6926 60.7154 36.5943V36.5868Z" fill="#F8F7F7"/>
<path d="M62.5178 58.6205C62.533 57.4831 62.3692 57.6758 63.5085 57.6267C63.9886 57.604 64.1676 57.7627 64.1676 58.2237C64.1676 58.5713 64.2438 58.919 64.2248 59.2629C64.221 59.38 64.0457 59.5652 63.9314 59.584C63.6342 59.6294 63.3218 59.5765 63.0207 59.6029C62.6092 59.6407 62.4644 59.4669 62.514 59.0777C62.533 58.9303 62.514 58.7754 62.514 58.6243L62.5178 58.6205Z" fill="#F6F6F6"/>
<path d="M47.4289 58.6432C47.4061 59.6974 47.6347 59.5916 46.4573 59.5992C46.3354 59.5992 46.2134 59.5954 46.0915 59.5992C45.7981 59.6143 45.6724 59.4896 45.7067 59.1911C45.7524 58.7716 45.6952 58.322 45.8324 57.9365C46.0534 57.3055 46.644 57.7552 47.0555 57.6456C47.3223 57.5738 47.4404 57.7438 47.4289 58.0121C47.4175 58.2237 47.4289 58.4353 47.4289 58.6469V58.6432Z" fill="#F2F1F1"/>
<path d="M68.7095 38.2872C68.7095 38.6802 68.7247 39.0731 68.698 39.4624C68.6904 39.5757 68.5532 39.7722 68.4847 39.7684C68.3361 39.7571 68.0922 39.674 68.0617 39.5719C67.8217 38.7633 67.6235 37.9433 67.414 37.1271C67.4025 37.0855 67.4063 36.9986 67.414 36.9986C67.7531 36.942 68.0922 36.8664 68.4313 36.855C68.5189 36.855 68.6828 37.0478 68.6942 37.1611C68.7285 37.5352 68.7057 37.9131 68.7057 38.291L68.7095 38.2872Z" fill="#F6F6F6"/>
<path d="M59.4467 27.3025C59.1761 27.7408 58.9666 28.1262 58.7037 28.4739C58.6351 28.5646 58.3645 28.6137 58.2731 28.5532C57.9302 28.3341 57.6139 28.0695 57.3129 27.7937C57.2329 27.7181 57.2481 27.5405 57.2214 27.4083C57.2214 27.3969 57.2291 27.378 57.2367 27.3667C57.8578 26.0782 57.6025 26.2293 58.7113 26.8604C58.9437 26.9926 59.1723 27.1362 59.4429 27.3025H59.4467Z" fill="#F6F6F6"/>
<path d="M50.5039 27.2949C51.0259 26.9888 51.4984 26.6941 51.9899 26.4371C52.0623 26.3993 52.2757 26.4976 52.3329 26.5883C52.4929 26.8414 52.6301 27.1173 52.7215 27.4007C52.7596 27.5178 52.7025 27.7257 52.611 27.8163C52.3367 28.0771 52.0242 28.2925 51.7346 28.5343C51.5213 28.7119 51.3574 28.6854 51.2164 28.4474C50.9992 28.0884 50.7744 27.7294 50.5077 27.2949H50.5039Z" fill="#F7F6F6"/>
<path d="M41.2446 38.3099C41.2446 37.932 41.2522 37.5541 41.2446 37.1762C41.237 36.9306 41.3246 36.8362 41.5875 36.8248C42.6468 36.7795 42.643 36.7681 42.3725 37.796C42.2277 38.3514 42.0753 38.9031 41.9495 39.4624C41.8924 39.7193 41.7438 39.8591 41.5075 39.7722C41.3894 39.7307 41.2713 39.5304 41.2599 39.3944C41.2256 39.0354 41.2484 38.6726 41.2484 38.3099H41.2446Z" fill="#F4F3F3"/>
<path d="M65.5585 27.2382C65.2994 26.9548 65.3223 26.7923 65.6499 26.6941C65.8633 26.6299 66.0805 26.5807 66.2939 26.524C66.3244 26.9473 66.3549 27.3705 66.3853 27.7937C66.3739 27.8013 66.351 27.8164 66.3549 27.8201C66.3625 27.8428 66.3777 27.8617 66.3891 27.8844C66.4349 28.5457 66.4768 29.2032 66.5263 29.8644C66.5416 30.0836 66.5263 30.3368 66.8692 30.333C67.216 30.333 67.1245 30.0685 67.155 29.8795C67.4179 29.9098 67.6847 29.94 67.9476 29.9702C67.9476 30.0307 67.9476 30.0912 67.9476 30.1516C67.8295 30.3406 67.7571 30.624 67.5856 30.7033C67.1245 30.9149 66.6597 30.93 66.3244 30.4237C66.2786 30.3519 66.1072 30.3632 65.9929 30.333C65.9814 29.4034 65.9738 28.4739 65.9662 27.5443C65.9662 27.2609 65.9319 27.0304 65.5585 27.242V27.2382Z" fill="#FCFCFC"/>
<path d="M60.7421 7.97053C60.5935 8.56757 60.4944 9.03991 60.342 9.49335C60.3115 9.58782 60.0448 9.70874 59.9533 9.67095C59.4123 9.4329 58.8903 9.15705 58.3682 8.87742C58.2882 8.83586 58.1892 8.72628 58.193 8.65448C58.1968 8.57891 58.3035 8.47688 58.3873 8.45043C59.0465 8.22748 59.7095 8.00454 60.3763 7.81183C60.483 7.7816 60.6354 7.92141 60.7383 7.96675L60.7421 7.97053Z" fill="#F4F3F3"/>
<path d="M49.1206 7.94407C49.2425 7.89495 49.3949 7.77403 49.5016 7.80426C50.1684 7.99697 50.8276 8.21991 51.4868 8.44664C51.5745 8.47687 51.6811 8.57511 51.6888 8.65069C51.6964 8.72248 51.5973 8.83207 51.5173 8.87363C50.9953 9.14948 50.4733 9.42155 49.936 9.65961C49.8446 9.70117 49.5893 9.61048 49.5626 9.53113C49.4026 9.04745 49.2844 8.54866 49.1206 7.94029V7.94407Z" fill="#F4F3F3"/>
<path d="M64.7202 39.0656C64.4916 39.0656 64.263 39.0656 64.0343 39.0656C63.539 39.0618 63.5123 39.0316 63.6343 38.5366C63.68 38.3476 63.7371 38.1549 63.8248 37.9849C64.0953 37.471 64.6516 37.2934 65.0784 37.675C65.4099 37.9736 65.6156 38.4157 65.8557 38.8086C65.8747 38.8389 65.7185 39.0467 65.6309 39.0543C65.3299 39.0845 65.025 39.0656 64.7202 39.0656Z" fill="#F9F8F8"/>
<path d="M45.2531 39.0656C44.9483 39.0656 44.6473 39.0618 44.3425 39.0656C44.0834 39.0694 43.9957 38.9409 44.11 38.7293C44.2891 38.4043 44.4606 38.0529 44.7121 37.7884C45.196 37.282 45.8437 37.4181 46.1638 38.0416C46.5753 38.8427 46.4458 39.0618 45.5694 39.0618C45.4627 39.0618 45.356 39.0618 45.2493 39.0618L45.2531 39.0656Z" fill="#F9F8F8"/>
<path d="M66.3014 57.6342C66.7129 57.6342 67.1244 57.6418 67.5359 57.6342C67.795 57.6304 67.8865 57.7514 67.8827 57.9932C67.8827 58.2237 67.8636 58.4277 67.5588 58.4277C66.6748 58.4277 65.7946 58.4277 64.9106 58.424C64.5867 58.424 64.5829 58.1784 64.6401 57.9743C64.6744 57.8458 64.823 57.6607 64.9335 57.6493C65.3869 57.6115 65.8441 57.6342 66.3014 57.6342Z" fill="#F2F1F1"/>
<path d="M43.6681 58.4278C43.2718 58.4278 42.8794 58.4202 42.4831 58.4278C42.2011 58.4353 42.064 58.3295 42.064 58.0348C42.064 57.7514 42.1592 57.6229 42.4602 57.6267C43.2947 57.638 44.133 57.6418 44.9674 57.6267C45.2685 57.6229 45.3675 57.7476 45.3675 58.031C45.3675 58.3257 45.2265 58.4315 44.9446 58.424C44.5178 58.4164 44.0949 58.424 43.6681 58.424V58.4278Z" fill="#EFEFF0"/>
<path d="M60.7156 36.5868C60.8718 36.685 61.028 36.7795 61.1842 36.8777C61.1118 36.8739 61.0433 36.8702 60.8718 36.8588C61.3633 37.3803 61.8015 37.8337 62.2321 38.2947C62.6017 38.6915 62.5941 38.7217 62.1063 38.9485C61.2452 39.349 61.23 39.3528 61.0395 38.4383C60.9099 37.8262 60.8223 37.2027 60.7194 36.583L60.7156 36.5868Z" fill="#F3F2F3"/>
<path d="M48.831 36.8588C48.9758 36.7681 49.1206 36.6775 49.2654 36.5868C49.1206 37.369 48.9796 38.1474 48.8349 38.9296C48.7815 39.2167 48.6367 39.315 48.3547 39.1714C48.0537 39.0203 47.7413 38.8842 47.3564 38.7028C47.9661 38.0529 48.5072 37.4748 49.1016 36.8399C48.9644 36.8475 48.8996 36.8551 48.831 36.8588Z" fill="#F2F1F1"/>
<path d="M64.8535 29.6112C64.6744 29.445 64.4991 29.2749 64.3162 29.1162C64.2248 29.0331 64.1219 28.9613 64.0228 28.8857C64.0114 28.8328 64 28.7799 63.9885 28.7308L64.4686 27.1626C64.8078 27.2722 65.1164 27.5329 65.5088 27.3478C65.486 27.4385 65.4593 27.5254 65.4365 27.6161C65.4136 27.6765 65.3907 27.7332 65.3717 27.7937C65.2955 28.0657 65.2193 28.3378 65.1431 28.6137C65.1011 28.7648 65.0554 28.916 65.0135 29.0671C64.9983 29.1276 64.9792 29.188 64.964 29.2485C64.9449 29.3089 64.9297 29.3656 64.9106 29.4261C64.8916 29.4903 64.8725 29.5546 64.8535 29.6188V29.6112Z" fill="#FCFCFC"/>
<path d="M52.9805 24.4004C52.9348 24.4495 52.8738 24.5704 52.8281 24.5629C52.71 24.5478 52.55 24.5062 52.4928 24.4231C52.2566 24.0716 52.0584 23.7013 51.8412 23.3386C51.4869 22.7415 51.1249 22.1483 50.7858 21.5475C50.7324 21.453 50.7705 21.3132 50.7667 21.1923C50.9001 21.2263 51.1058 21.2149 51.1554 21.2943C51.7612 22.2843 52.3442 23.2895 52.9348 24.287C52.95 24.3135 52.9577 24.3437 52.9805 24.4004Z" fill="#EBEBEB"/>
<path d="M59.2827 21.3661C59.237 21.4454 59.1951 21.521 59.1493 21.6004C58.6121 22.5073 58.0786 23.4217 57.5223 24.3135C57.4461 24.4382 57.2327 24.476 57.0803 24.5553C57.0956 24.4117 57.0651 24.2379 57.1299 24.1246C57.6519 23.2101 58.1891 22.2994 58.7378 21.3963C58.8064 21.283 58.9817 21.2149 59.1227 21.1658C59.1874 21.1431 59.2903 21.2225 59.3741 21.2527C59.3437 21.2905 59.3132 21.3283 59.2827 21.3623V21.3661Z" fill="#EBEBEB"/>
<path d="M65.9929 30.3292C66.1072 30.3557 66.2787 30.3481 66.3244 30.4199C66.6597 30.93 67.1246 30.9111 67.5856 30.6995C67.7571 30.6202 67.8295 30.3368 67.9476 30.1478C67.9895 30.1478 68.0314 30.1478 68.0772 30.1516C68.1267 30.2083 68.1762 30.2687 68.222 30.3254C68.1343 30.5106 68.0467 30.6995 67.9972 30.8015C68.1229 31.0812 68.2181 31.289 68.3096 31.4968C67.5666 31.5119 66.8274 31.5233 66.0844 31.5384L66.1148 31.5233L66.0844 31.5346C66.0958 31.4931 66.1072 31.4553 66.1187 31.4137V31.2323C66.0844 31.1076 66.3511 30.8809 65.9929 30.8658C65.9929 30.6844 65.9929 30.503 65.9929 30.3216V30.3292Z" fill="white"/>
<path d="M41.2903 58.0083C41.4199 58.1557 41.5685 58.2841 41.6561 58.4429C41.7019 58.526 41.6714 58.7074 41.6028 58.7792C41.3399 59.0474 41.0503 59.2931 40.7721 59.5425C40.4406 59.841 40.2958 59.4896 40.1053 59.3422C39.8653 59.1533 40.0253 59.0097 40.1853 58.8774C40.4635 58.6469 40.7378 58.4126 41.0198 58.1821C41.0884 58.1254 41.1684 58.0877 41.2903 58.0083Z" fill="#EFEFF0"/>
<path d="M68.66 58.0121C68.7934 58.0952 68.8887 58.1443 68.9687 58.2086C69.2049 58.3975 69.445 58.5827 69.666 58.7905C69.8184 58.9341 70.1499 59.0437 69.8527 59.3498C69.6164 59.5916 69.403 59.8145 69.0715 59.448C68.8582 59.2137 68.5876 59.0323 68.3704 58.8018C68.2981 58.7263 68.2485 58.5411 68.2942 58.458C68.3743 58.2955 68.5267 58.167 68.66 58.0121Z" fill="#F3F2F3"/>
<path d="M30.4462 61.5074C29.204 61.5225 27.958 61.5376 26.7159 61.549C25.1841 61.5603 23.6524 61.5641 22.1206 61.5716C22.2311 61.4998 22.3378 61.3638 22.4483 61.3638C25.0203 61.3525 27.5884 61.3525 30.1604 61.3638C30.2557 61.3638 30.3509 61.4621 30.4462 61.5112V61.5074Z" fill="#0C0B0A"/>
<path d="M61.226 33.9832C61.165 34.2326 61.1574 34.3989 61.0812 34.516C61.0279 34.5916 60.8335 34.6596 60.7611 34.6181C60.4068 34.4329 59.9724 33.4769 60.0715 33.0839C60.0943 32.9857 60.3725 32.8572 60.3801 32.861C60.6849 33.2426 60.9745 33.6394 61.226 33.9757V33.9832Z" fill="#EDEDED"/>
<path d="M49.9666 33.3031C49.9323 33.9001 49.4865 34.2137 49.2083 34.6067C49.1817 34.6445 48.8997 34.5803 48.8959 34.5463C48.8692 34.2931 48.8235 34.0172 48.8959 33.7867C48.9683 33.5525 49.1626 33.3484 49.3265 33.1557C49.4331 33.0272 49.5894 32.9403 49.7227 32.8345C49.8028 32.9932 49.8866 33.1481 49.9666 33.3068V33.3031Z" fill="#EBEBEB"/>
<path d="M20.4745 61.5981C19.2628 61.6094 18.0511 61.6245 16.8356 61.6359C15.4868 61.6472 14.1379 61.6548 12.7891 61.6661C12.911 61.5943 13.0367 61.4583 13.1587 61.4545C15.4868 61.4431 17.8149 61.4431 20.143 61.4545C20.2535 61.4545 20.364 61.5527 20.4745 61.6019V61.5981Z" fill="#0C0B0A"/>
<path d="M39.3206 61.4243C36.8172 61.4432 34.3176 61.4621 31.8142 61.481C31.9666 61.4092 32.1228 61.2731 32.2753 61.2694C34.6605 61.2542 37.042 61.258 39.4272 61.258C39.4272 61.2882 39.4234 61.3185 39.4196 61.3487C39.3853 61.3752 39.3549 61.3978 39.3206 61.4243Z" fill="#0C0B0A"/>
<path d="M60.9441 52.8995C60.9441 53.0204 60.9632 53.1413 60.9403 53.2585C60.9098 53.4058 60.845 53.5457 60.7917 53.6892C60.6621 53.6023 60.5059 53.5381 60.4107 53.4247C60.0258 52.9713 60.0373 52.7106 60.4602 52.3176C60.5478 52.2344 60.685 52.208 60.8031 52.1551C60.8489 52.2685 60.9174 52.3818 60.9403 52.499C60.9632 52.6274 60.9441 52.7672 60.9441 52.9033V52.8995Z" fill="#EDEDED"/>
<path d="M49.2921 52.019C49.494 52.3516 49.7798 52.6236 49.7912 52.907C49.8027 53.1489 49.5055 53.4096 49.3226 53.6439C49.3035 53.6666 49.033 53.5721 49.033 53.5192C49.0063 53.1149 49.0101 52.7068 49.0254 52.2987C49.0254 52.2344 49.1359 52.1777 49.2883 52.0153L49.2921 52.019Z" fill="#EDEDED"/>
<path d="M65.2918 24.4344C65.3223 24.8425 65.3604 25.2544 65.3832 25.6662C65.3947 25.8854 65.4099 26.1084 65.3718 26.32C65.3528 26.4296 65.2385 26.5694 65.1394 26.5996C64.987 26.6487 64.8117 26.6109 64.644 26.6147C64.7126 26.3729 64.7812 26.131 64.8498 25.8892C64.865 25.8363 64.8841 25.7834 64.8993 25.7305C64.9527 25.5416 65.0022 25.3488 65.0556 25.1599C65.0708 25.1221 65.0899 25.0843 65.1051 25.0465C65.0899 25.0201 65.0937 24.9974 65.1165 24.9823C65.1432 24.9105 65.1661 24.8387 65.1927 24.7631L65.2918 24.4382V24.4344Z" fill="#FCFCFC"/>
<path d="M50.2143 10.1848C50.9116 10.2113 51.6089 10.2415 52.3062 10.268C52.2071 10.3322 52.1119 10.404 52.0128 10.4645C51.8985 10.5325 51.7804 10.5929 51.666 10.6572C51.1783 10.6232 50.6906 10.5929 50.2029 10.5589C50.2067 10.4342 50.2105 10.3095 50.2181 10.1848H50.2143Z" fill="#342F2E"/>
<path d="M68.3132 31.5006C68.2179 31.2928 68.1265 31.0849 68.0007 30.8053C68.0503 30.7033 68.1379 30.5144 68.2255 30.3292C68.3513 30.3519 68.477 30.3745 68.6028 30.3972C68.6028 30.7713 68.6028 31.1492 68.6028 31.5233C68.5075 31.5157 68.4084 31.5119 68.3132 31.5044V31.5006Z" fill="#FCFCFC"/>
<path d="M60.2659 12.5541C60.685 12.0931 61.1041 11.6359 61.5271 11.1749C61.5614 11.2429 61.5995 11.3071 61.6338 11.3751C61.4547 11.5716 61.2908 11.7946 61.0889 11.9646C60.7269 12.2707 60.5021 12.6108 60.6583 13.1058C60.5288 12.9206 60.3992 12.7355 60.2659 12.5541Z" fill="#D6524A"/>
<path d="M48.3586 11.1862C48.8083 11.6623 49.2541 12.1347 49.7037 12.6108C49.5589 12.6864 49.4141 12.7657 49.2693 12.8413C49.2198 12.6713 49.2122 12.4672 49.1131 12.3387C48.8502 11.9986 48.5415 11.6926 48.252 11.3714C48.2901 11.3109 48.3243 11.2467 48.3625 11.1862H48.3586Z" fill="#D6524A"/>
<path d="M68.3134 31.5006C68.4086 31.5082 68.5077 31.5119 68.6029 31.5195C68.4353 31.5497 68.2676 31.614 68.1 31.6102C67.4294 31.5989 66.7588 31.5648 66.0881 31.5422C66.8311 31.5271 67.5704 31.5157 68.3134 31.5006Z" fill="#F5F5F5"/>
<path d="M64.2896 31.6895C64.1715 31.1416 64.4496 30.6957 64.6744 30.2347C64.5449 30.7184 64.4191 31.2021 64.2896 31.6895Z" fill="#F5F5F5"/>
<path d="M67.9171 26.524C67.8943 26.0706 67.8676 25.6171 67.8447 25.1675C67.8676 25.6209 67.8943 26.0744 67.9171 26.524Z" fill="#F5F5F5"/>
<path d="M67.814 24.1661C67.7912 23.8033 67.7721 23.4406 67.7493 23.0816C67.7721 23.4444 67.7912 23.8071 67.814 24.1661Z" fill="#F5F5F5"/>
<path d="M63.9885 28.727C63.9999 28.7799 64.0114 28.8328 64.0228 28.8819C63.9771 29.1011 63.9466 29.3241 63.8818 29.5357C63.8628 29.6037 63.7523 29.6452 63.6875 29.6981C63.7866 29.3732 63.8894 29.0482 63.9885 28.7232V28.727Z" fill="#F5F5F5"/>
<path d="M67.334 19.5674C67.2387 19.609 67.1434 19.6506 67.052 19.6921C67.0177 19.5485 66.9796 19.4049 66.9453 19.2614C67.0749 19.3634 67.2044 19.4654 67.334 19.5674Z" fill="#F5F5F5"/>
<path d="M63.8133 33.594C63.6762 33.4328 63.7333 33.2225 63.9848 32.963C63.9277 33.1746 63.8705 33.3862 63.8133 33.594Z" fill="#F5F5F5"/>
<path d="M68.0771 30.1516C68.0351 30.1516 67.9932 30.1516 67.9475 30.1478C67.9475 30.0874 67.9475 30.0269 67.9475 29.9665C67.9742 29.8153 68.0047 29.6679 68.0313 29.5168C68.0466 29.7284 68.0618 29.94 68.0771 30.1516Z" fill="#F5F5F5"/>
<path d="M63.638 34.3195C63.5123 34.0966 63.4894 33.8963 63.779 33.7754C63.7333 33.9568 63.6838 34.1381 63.638 34.3195Z" fill="#F5F5F5"/>
<path d="M66.835 19.1744C66.5187 19.2916 66.3511 19.216 66.412 18.8495C66.553 18.959 66.694 19.0648 66.835 19.1744Z" fill="#F5F5F5"/>
<path d="M65.9928 30.8734C66.351 30.8885 66.0881 31.1152 66.1186 31.2399C66.0766 31.2399 66.0347 31.2399 65.989 31.2399C65.989 31.119 65.989 30.9981 65.989 30.8771L65.9928 30.8734Z" fill="#FCFCFC"/>
<path d="M66.1223 18.6303C65.9089 18.6454 65.7222 18.6303 65.7565 18.3393C65.8785 18.4376 66.0004 18.532 66.1223 18.6303Z" fill="#F5F5F5"/>
<path d="M65.5164 22.9834C65.726 23.0816 65.7184 23.1723 65.5088 23.2592C65.5088 23.1685 65.5126 23.0741 65.5164 22.9834Z" fill="#F5F5F5"/>
<path d="M63.3866 30.6995C63.3599 30.7902 63.3294 30.8809 63.3027 30.9678C63.3294 30.8771 63.3599 30.7864 63.3866 30.6995Z" fill="#F5F5F5"/>
<path d="M68.0275 29.2447C67.9512 29.2258 67.875 29.2069 67.7988 29.188C67.7988 29.1654 67.7988 29.1427 67.7988 29.12C67.875 29.1011 67.9512 29.0822 68.0236 29.0633C68.0236 29.1238 68.0236 29.1842 68.0275 29.2485V29.2447Z" fill="#F5F5F5"/>
<path d="M65.3718 27.7861C65.3947 27.7257 65.4175 27.669 65.4366 27.6085C65.4137 27.669 65.3909 27.7257 65.3718 27.7861Z" fill="#F5F5F5"/>
<path d="M65.989 31.2361C66.0309 31.2361 66.0728 31.2361 66.1186 31.2361C66.1186 31.2965 66.1186 31.357 66.1186 31.4175C66.0766 31.4212 66.0347 31.425 65.9928 31.4288C65.9928 31.3646 65.9928 31.3003 65.9928 31.2323L65.989 31.2361Z" fill="#F5F5F5"/>
<path d="M63.577 30.0647C63.5542 30.1289 63.5313 30.1894 63.5046 30.2536C63.5275 30.1894 63.5504 30.1289 63.577 30.0647Z" fill="#F5F5F5"/>
<path d="M50.2179 10.0148C50.2179 10.0715 50.2179 10.1319 50.2179 10.1886C50.1684 10.1659 50.1189 10.1471 50.0693 10.1244L50.2179 10.0148Z" fill="#342F2E"/>
<path d="M65.1888 24.7594C65.1621 24.8312 65.1392 24.903 65.1125 24.9785C65.1392 24.9067 65.1621 24.8349 65.1888 24.7594Z" fill="#F5F5F5"/>
<path d="M61.0897 35.6952C61.059 35.6913 61.0283 35.6875 60.9976 35.6799C61.0283 35.6837 61.059 35.6875 61.0897 35.6952Z" fill="#F3F2F3"/>
<path d="M65.0935 21.385C65.0631 21.4303 65.0326 21.4794 64.9983 21.5248C65.0288 21.4794 65.0593 21.4303 65.0935 21.385Z" fill="#F5F5F5"/>
<path d="M65.9929 31.4326C66.0348 31.4288 66.0767 31.425 66.1187 31.4213C66.1072 31.4628 66.0958 31.5006 66.0844 31.5422C66.0539 31.5044 66.0234 31.4704 65.9929 31.4326Z" fill="#FCFCFC"/>
<path d="M43.7596 24.4911C43.6415 26.3918 43.5272 28.1564 43.4205 29.9211C43.4053 30.1592 43.3672 30.3443 43.0662 30.3254C42.7728 30.3065 42.7842 30.11 42.8071 29.9022C42.9861 28.13 43.1652 26.3578 43.3558 24.5856C43.3672 24.4646 43.4891 24.3513 43.5615 24.2379C43.6491 24.3513 43.7406 24.4646 43.7596 24.4911Z" fill="#3C3A3A"/>
<path d="M46.4496 35.1244C46.423 35.1584 46.4039 35.1811 46.3849 35.2037C46.362 35.166 46.3315 35.1319 46.3201 35.0942C46.3163 35.0828 46.3544 35.0564 46.3772 35.0375C46.4039 35.0677 46.4268 35.0979 46.4535 35.1282L46.4496 35.1244Z" fill="#242424"/>
<path d="M65.0479 42.5269C64.8307 43.4678 64.6326 44.3331 64.4306 45.1985C64.1144 46.5626 63.7943 47.9267 63.4742 49.2908C63.459 49.3626 63.459 49.4533 63.4133 49.5062C63.3218 49.6158 63.2037 49.7065 63.097 49.8047C63.0398 49.6725 62.9217 49.5289 62.9408 49.4042C63.017 48.9281 63.1389 48.4595 63.2456 47.9909C63.6343 46.2565 64.0267 44.5221 64.4154 42.7914C64.4382 42.6894 64.4344 42.5571 64.4992 42.4929C64.5906 42.3984 64.7316 42.3115 64.8536 42.3077C64.9222 42.3077 64.9984 42.474 65.0441 42.5307L65.0479 42.5269Z" fill="#3A3836"/>
<path d="M47.2193 49.6989C47.1012 49.7329 46.9678 49.8236 46.8726 49.7896C46.743 49.748 46.5754 49.6309 46.5449 49.5138C46.343 48.7391 46.1677 47.9607 45.9886 47.1823C45.6457 45.6973 45.2989 44.216 44.975 42.7272C44.9484 42.5987 45.0131 42.3531 45.1046 42.3077C45.3485 42.1982 45.4437 42.3871 45.4932 42.6063C46 44.8735 46.5106 47.1407 47.0212 49.4042C47.0326 49.4495 47.0441 49.4911 47.0555 49.5364C47.1088 49.5893 47.166 49.646 47.2193 49.6989Z" fill="#3A3836"/>
<path d="M55.9564 16.261C55.9336 16.5633 55.9298 16.8656 55.8802 17.1641C55.8612 17.2662 55.7316 17.3531 55.6516 17.4438C55.5754 17.3493 55.4344 17.2548 55.4344 17.1604C55.4154 16.5558 55.4116 15.9512 55.4382 15.3504C55.4421 15.2521 55.6402 15.1652 55.7507 15.0707C55.8383 15.1803 55.9869 15.2861 55.9946 15.4033C56.0174 15.6867 55.9793 15.9739 55.9641 16.261C55.9641 16.261 55.9641 16.261 55.9603 16.261H55.9564Z" fill="#3A3836"/>
<path d="M54.4512 16.2573C54.4512 16.5596 54.4703 16.8619 54.4398 17.1604C54.4322 17.2586 54.2988 17.3455 54.2226 17.4362C54.1464 17.3569 54.0169 17.2813 54.0092 17.1944C53.9445 16.5822 53.8949 15.9663 53.8721 15.3466C53.8721 15.2597 54.0588 15.0783 54.1312 15.0934C54.2493 15.1161 54.4208 15.2521 54.436 15.3579C54.4779 15.6527 54.4512 15.9587 54.4512 16.261V16.2573Z" fill="#342F2E"/>
<path d="M67.1551 29.8757C67.1246 30.0647 67.216 30.3254 66.8693 30.3292C66.5225 30.3292 66.5416 30.0798 66.5264 29.8606C66.4768 29.2031 66.4349 28.5419 66.3892 27.8806C66.3892 27.8503 66.3892 27.8201 66.3892 27.7899C66.3587 27.3667 66.3282 26.9435 66.2977 26.5202C66.2711 25.9043 66.233 25.2846 66.2253 24.6687C66.2253 24.5289 66.3168 24.3853 66.3701 24.2455C66.4616 24.3777 66.614 24.5024 66.6292 24.6422C66.7664 25.8098 66.8731 26.9812 66.9912 28.1526C67.0027 28.2169 67.0103 28.2811 67.0217 28.3416C67.0674 28.8517 67.117 29.3656 67.1627 29.8757H67.1551Z" fill="#3C3A3A"/>
<path d="M67.0139 28.3416C67.0025 28.2773 66.9948 28.2131 66.9834 28.1526C66.9948 28.2169 67.0025 28.2811 67.0139 28.3416Z" fill="#F5F5F5"/>
<path d="M60.2658 12.5541C60.3953 12.7393 60.5249 12.9244 60.6582 13.1058C60.6582 13.2494 60.6582 13.393 60.662 13.5366C60.6506 13.631 60.6354 13.7293 60.6239 13.8238C60.5896 13.9409 60.5554 14.0618 60.5211 14.179C60.5058 14.2205 60.4868 14.2583 60.4715 14.2999C60.2924 14.7118 60.0638 15.135 59.5723 15.1463C59.096 15.1576 58.7835 14.7949 58.5702 14.3943C58.4139 14.0958 58.3111 13.7709 58.2349 13.5744C58.9703 13.2078 59.618 12.8791 60.2696 12.5541H60.2658Z" fill="#CA2522"/>
<path d="M57.3509 12.1082C57.0499 11.976 57.2099 11.7908 57.3052 11.6283C57.389 11.481 57.4309 11.2278 57.7091 11.3903C57.5909 11.6283 57.469 11.8702 57.3509 12.1082Z" fill="#242424"/>
<path d="M49.2654 12.8375C49.4102 12.762 49.555 12.6826 49.6998 12.607C50.3247 12.9131 50.9534 13.223 51.6354 13.5593C51.5668 14.0165 51.3268 14.5191 50.8772 14.912C50.4542 15.2786 50.157 15.2483 49.7455 14.8251C49.6998 14.7722 49.654 14.7193 49.6083 14.6664C49.5855 14.6589 49.574 14.64 49.574 14.6173C49.5435 14.5644 49.5131 14.5115 49.4826 14.4548L49.4788 14.4473C49.4178 14.2999 49.3568 14.1525 49.2959 14.0014V13.9976C49.2806 13.6688 49.2616 13.3401 49.2463 13.0113C49.254 12.9547 49.2616 12.898 49.2654 12.8413V12.8375Z" fill="#CA2522"/>
<path d="M51.6659 10.6572C51.7802 10.593 51.8983 10.5325 52.0127 10.4645C52.1155 10.404 52.2108 10.336 52.3061 10.268C52.3213 10.234 52.348 10.2264 52.3823 10.2378C52.447 10.3398 52.5156 10.4456 52.5804 10.5476C52.4508 10.6421 52.3251 10.7366 52.1956 10.831C52.066 10.831 51.9326 10.831 51.8031 10.831C51.7574 10.7743 51.7078 10.7177 51.6621 10.6572H51.6659Z" fill="#242424"/>
<path d="M49.2998 14.0014C49.3608 14.1487 49.4217 14.2961 49.4827 14.4473C49.4217 14.2999 49.3608 14.1525 49.2998 14.0014Z" fill="#D6524A"/>
<path d="M49.4863 14.451C49.5168 14.5039 49.5473 14.5568 49.5778 14.6135C49.5473 14.5606 49.5168 14.5077 49.4863 14.451Z" fill="#D6524A"/>
<path d="M52.1957 10.831C52.3253 10.7366 52.451 10.6421 52.5805 10.5476C54.1199 10.2945 55.6593 10.234 57.1949 10.5514C57.7588 10.6685 57.7855 10.7328 57.4349 11.1522C56.9015 11.7908 56.7071 12.5352 56.7681 13.3439C56.7948 13.6651 56.6881 13.7898 56.3718 13.786C55.4154 13.7822 54.4552 13.786 53.4988 13.786C53.2893 13.786 53.0759 13.7709 53.1064 13.4837C53.2054 12.4597 52.8701 11.5906 52.1919 10.831H52.1957Z" fill="#FAF9FA"/>
<path d="M66.3854 27.7899C66.3854 27.8201 66.3854 27.8504 66.3854 27.8806C66.3739 27.8579 66.3587 27.839 66.3511 27.8164C66.3511 27.8126 66.3701 27.7975 66.3816 27.7899H66.3854Z" fill="#F5F5F5"/>
</svg>
