<svg width="245" height="156" viewBox="0 0 245 156" fill="none" xmlns="http://www.w3.org/2000/svg">
<g clip-path="url(#clip0_123_794)">
<path d="M48.9598 95.0098L41.0498 101.7L48.9598 107.54" stroke="#A6A6A6" stroke-width="2.47" stroke-linecap="round" stroke-linejoin="round"/>
<path d="M59.2299 98.21L55.3599 101.48L59.2299 104.34" stroke="#A6A6A6" stroke-width="0.35" stroke-linecap="round" stroke-linejoin="round"/>
<path d="M201.07 104.34L204.94 101.07L201.07 98.21" stroke="#A6A6A6" stroke-width="0.35" stroke-linecap="round" stroke-linejoin="round"/>
<path d="M208.65 107.54L216.56 100.85L208.65 95.0098" stroke="#A6A6A6" stroke-width="2.47" stroke-linecap="round" stroke-linejoin="round"/>
<g opacity="0.4">
<path d="M34.35 60.1601C34.35 61.4301 33.32 62.4501 32.06 62.4501C30.8 62.4501 29.77 61.4201 29.77 60.1601C29.77 58.9001 30.8 57.8701 32.06 57.8701C33.32 57.8701 34.35 58.9001 34.35 60.1601Z" fill="#A6A6A6"/>
<path d="M55.31 60.1601C55.31 61.4301 54.28 62.4501 53.02 62.4501C51.76 62.4501 50.73 61.4201 50.73 60.1601C50.73 58.9001 51.76 57.8701 53.02 57.8701C54.28 57.8701 55.31 58.9001 55.31 60.1601Z" fill="#A6A6A6"/>
<path d="M73.9702 62.4501C75.2349 62.4501 76.2602 61.4249 76.2602 60.1601C76.2602 58.8954 75.2349 57.8701 73.9702 57.8701C72.7054 57.8701 71.6802 58.8954 71.6802 60.1601C71.6802 61.4249 72.7054 62.4501 73.9702 62.4501Z" fill="#A6A6A6"/>
<path d="M97.2201 60.1601C97.2201 61.4301 96.1901 62.4501 94.9301 62.4501C93.6701 62.4501 92.6401 61.4201 92.6401 60.1601C92.6401 58.9001 93.6701 57.8701 94.9301 57.8701C96.1901 57.8701 97.2201 58.9001 97.2201 60.1601Z" fill="#A6A6A6"/>
<path d="M118.18 60.1601C118.18 61.4301 117.15 62.4501 115.89 62.4501C114.63 62.4501 113.6 61.4201 113.6 60.1601C113.6 58.9001 114.63 57.8701 115.89 57.8701C117.15 57.8701 118.18 58.9001 118.18 60.1601Z" fill="#A6A6A6"/>
<path d="M136.85 62.4501C138.115 62.4501 139.14 61.4249 139.14 60.1601C139.14 58.8954 138.115 57.8701 136.85 57.8701C135.585 57.8701 134.56 58.8954 134.56 60.1601C134.56 61.4249 135.585 62.4501 136.85 62.4501Z" fill="#A6A6A6"/>
<path d="M157.8 62.4501C159.065 62.4501 160.09 61.4249 160.09 60.1601C160.09 58.8954 159.065 57.8701 157.8 57.8701C156.535 57.8701 155.51 58.8954 155.51 60.1601C155.51 61.4249 156.535 62.4501 157.8 62.4501Z" fill="#A6A6A6"/>
<path d="M181.05 60.1601C181.05 61.4301 180.02 62.4501 178.76 62.4501C177.5 62.4501 176.47 61.4201 176.47 60.1601C176.47 58.9001 177.5 57.8701 178.76 57.8701C180.02 57.8701 181.05 58.9001 181.05 60.1601Z" fill="#A6A6A6"/>
<path d="M202.01 60.1601C202.01 61.4301 200.98 62.4501 199.72 62.4501C198.46 62.4501 197.43 61.4201 197.43 60.1601C197.43 58.9001 198.46 57.8701 199.72 57.8701C200.98 57.8701 202.01 58.9001 202.01 60.1601Z" fill="#A6A6A6"/>
<path d="M220.68 62.4501C221.945 62.4501 222.97 61.4249 222.97 60.1601C222.97 58.8954 221.945 57.8701 220.68 57.8701C219.415 57.8701 218.39 58.8954 218.39 60.1601C218.39 61.4249 219.415 62.4501 220.68 62.4501Z" fill="#A6A6A6"/>
<path d="M34.35 87.1103C34.35 88.3803 33.32 89.4003 32.06 89.4003C30.8 89.4003 29.77 88.3703 29.77 87.1103C29.77 85.8503 30.8 84.8203 32.06 84.8203C33.32 84.8203 34.35 85.8503 34.35 87.1103Z" fill="#A6A6A6"/>
<path d="M55.31 87.1103C55.31 88.3803 54.28 89.4003 53.02 89.4003C51.76 89.4003 50.73 88.3703 50.73 87.1103C50.73 85.8503 51.76 84.8203 53.02 84.8203C54.28 84.8203 55.31 85.8503 55.31 87.1103Z" fill="#A6A6A6"/>
<path d="M73.9702 89.4003C75.2349 89.4003 76.2602 88.375 76.2602 87.1103C76.2602 85.8456 75.2349 84.8203 73.9702 84.8203C72.7054 84.8203 71.6802 85.8456 71.6802 87.1103C71.6802 88.375 72.7054 89.4003 73.9702 89.4003Z" fill="#A6A6A6"/>
<path d="M97.2201 87.1103C97.2201 88.3803 96.1901 89.4003 94.9301 89.4003C93.6701 89.4003 92.6401 88.3703 92.6401 87.1103C92.6401 85.8503 93.6701 84.8203 94.9301 84.8203C96.1901 84.8203 97.2201 85.8503 97.2201 87.1103Z" fill="#A6A6A6"/>
<path d="M118.18 87.1103C118.18 88.3803 117.15 89.4003 115.89 89.4003C114.63 89.4003 113.6 88.3703 113.6 87.1103C113.6 85.8503 114.63 84.8203 115.89 84.8203C117.15 84.8203 118.18 85.8503 118.18 87.1103Z" fill="#A6A6A6"/>
<path d="M136.85 89.4003C138.115 89.4003 139.14 88.375 139.14 87.1103C139.14 85.8456 138.115 84.8203 136.85 84.8203C135.585 84.8203 134.56 85.8456 134.56 87.1103C134.56 88.375 135.585 89.4003 136.85 89.4003Z" fill="#A6A6A6"/>
<path d="M157.8 89.4003C159.065 89.4003 160.09 88.375 160.09 87.1103C160.09 85.8456 159.065 84.8203 157.8 84.8203C156.535 84.8203 155.51 85.8456 155.51 87.1103C155.51 88.375 156.535 89.4003 157.8 89.4003Z" fill="#A6A6A6"/>
<path d="M181.05 87.1103C181.05 88.3803 180.02 89.4003 178.76 89.4003C177.5 89.4003 176.47 88.3703 176.47 87.1103C176.47 85.8503 177.5 84.8203 178.76 84.8203C180.02 84.8203 181.05 85.8503 181.05 87.1103Z" fill="#A6A6A6"/>
<path d="M202.01 87.1103C202.01 88.3803 200.98 89.4003 199.72 89.4003C198.46 89.4003 197.43 88.3703 197.43 87.1103C197.43 85.8503 198.46 84.8203 199.72 84.8203C200.98 84.8203 202.01 85.8503 202.01 87.1103Z" fill="#A6A6A6"/>
<path d="M220.68 89.4003C221.945 89.4003 222.97 88.375 222.97 87.1103C222.97 85.8456 221.945 84.8203 220.68 84.8203C219.415 84.8203 218.39 85.8456 218.39 87.1103C218.39 88.375 219.415 89.4003 220.68 89.4003Z" fill="#A6A6A6"/>
<path d="M34.35 114.05C34.35 115.32 33.32 116.34 32.06 116.34C30.8 116.34 29.77 115.31 29.77 114.05C29.77 112.79 30.8 111.76 32.06 111.76C33.32 111.76 34.35 112.79 34.35 114.05Z" fill="#A6A6A6"/>
<path d="M55.31 114.05C55.31 115.32 54.28 116.34 53.02 116.34C51.76 116.34 50.73 115.31 50.73 114.05C50.73 112.79 51.76 111.76 53.02 111.76C54.28 111.76 55.31 112.79 55.31 114.05Z" fill="#A6A6A6"/>
<path d="M76.2699 114.05C76.2699 115.32 75.2399 116.34 73.9799 116.34C72.7199 116.34 71.6899 115.31 71.6899 114.05C71.6899 112.79 72.7199 111.76 73.9799 111.76C75.2399 111.76 76.2699 112.79 76.2699 114.05Z" fill="#A6A6A6"/>
<path d="M97.2201 114.05C97.2201 115.32 96.1901 116.34 94.9301 116.34C93.6701 116.34 92.6401 115.31 92.6401 114.05C92.6401 112.79 93.6701 111.76 94.9301 111.76C96.1901 111.76 97.2201 112.79 97.2201 114.05Z" fill="#A6A6A6"/>
<path d="M118.18 114.05C118.18 115.32 117.15 116.34 115.89 116.34C114.63 116.34 113.6 115.31 113.6 114.05C113.6 112.79 114.63 111.76 115.89 111.76C117.15 111.76 118.18 112.79 118.18 114.05Z" fill="#A6A6A6"/>
<path d="M139.14 114.05C139.14 115.32 138.11 116.34 136.85 116.34C135.59 116.34 134.56 115.31 134.56 114.05C134.56 112.79 135.59 111.76 136.85 111.76C138.11 111.76 139.14 112.79 139.14 114.05Z" fill="#A6A6A6"/>
<path d="M160.1 114.05C160.1 115.32 159.07 116.34 157.81 116.34C156.55 116.34 155.52 115.31 155.52 114.05C155.52 112.79 156.55 111.76 157.81 111.76C159.07 111.76 160.1 112.79 160.1 114.05Z" fill="#A6A6A6"/>
<path d="M181.05 114.05C181.05 115.32 180.02 116.34 178.76 116.34C177.5 116.34 176.47 115.31 176.47 114.05C176.47 112.79 177.5 111.76 178.76 111.76C180.02 111.76 181.05 112.79 181.05 114.05Z" fill="#A6A6A6"/>
<path d="M202.01 114.05C202.01 115.32 200.98 116.34 199.72 116.34C198.46 116.34 197.43 115.31 197.43 114.05C197.43 112.79 198.46 111.76 199.72 111.76C200.98 111.76 202.01 112.79 202.01 114.05Z" fill="#A6A6A6"/>
<path d="M222.97 114.05C222.97 115.32 221.94 116.34 220.68 116.34C219.42 116.34 218.39 115.31 218.39 114.05C218.39 112.79 219.42 111.76 220.68 111.76C221.94 111.76 222.97 112.79 222.97 114.05Z" fill="#A6A6A6"/>
<path d="M34.35 141C34.35 142.27 33.32 143.29 32.06 143.29C30.8 143.29 29.77 142.26 29.77 141C29.77 139.74 30.8 138.71 32.06 138.71C33.32 138.71 34.35 139.74 34.35 141Z" fill="#A6A6A6"/>
<path d="M55.31 141C55.31 142.27 54.28 143.29 53.02 143.29C51.76 143.29 50.73 142.26 50.73 141C50.73 139.74 51.76 138.71 53.02 138.71C54.28 138.71 55.31 139.74 55.31 141Z" fill="#A6A6A6"/>
<path d="M76.2699 141C76.2699 142.27 75.2399 143.29 73.9799 143.29C72.7199 143.29 71.6899 142.26 71.6899 141C71.6899 139.74 72.7199 138.71 73.9799 138.71C75.2399 138.71 76.2699 139.74 76.2699 141Z" fill="#A6A6A6"/>
<path d="M97.2201 141C97.2201 142.27 96.1901 143.29 94.9301 143.29C93.6701 143.29 92.6401 142.26 92.6401 141C92.6401 139.74 93.6701 138.71 94.9301 138.71C96.1901 138.71 97.2201 139.74 97.2201 141Z" fill="#A6A6A6"/>
<path d="M118.18 141C118.18 142.27 117.15 143.29 115.89 143.29C114.63 143.29 113.6 142.26 113.6 141C113.6 139.74 114.63 138.71 115.89 138.71C117.15 138.71 118.18 139.74 118.18 141Z" fill="#A6A6A6"/>
<path d="M139.14 141C139.14 142.27 138.11 143.29 136.85 143.29C135.59 143.29 134.56 142.26 134.56 141C134.56 139.74 135.59 138.71 136.85 138.71C138.11 138.71 139.14 139.74 139.14 141Z" fill="#A6A6A6"/>
<path d="M160.1 141C160.1 142.27 159.07 143.29 157.81 143.29C156.55 143.29 155.52 142.26 155.52 141C155.52 139.74 156.55 138.71 157.81 138.71C159.07 138.71 160.1 139.74 160.1 141Z" fill="#A6A6A6"/>
<path d="M181.05 141C181.05 142.27 180.02 143.29 178.76 143.29C177.5 143.29 176.47 142.26 176.47 141C176.47 139.74 177.5 138.71 178.76 138.71C180.02 138.71 181.05 139.74 181.05 141Z" fill="#A6A6A6"/>
<path d="M202.01 141C202.01 142.27 200.98 143.29 199.72 143.29C198.46 143.29 197.43 142.26 197.43 141C197.43 139.74 198.46 138.71 199.72 138.71C200.98 138.71 202.01 139.74 202.01 141Z" fill="#A6A6A6"/>
<path d="M222.97 141C222.97 142.27 221.94 143.29 220.68 143.29C219.42 143.29 218.39 142.26 218.39 141C218.39 139.74 219.42 138.71 220.68 138.71C221.94 138.71 222.97 139.74 222.97 141Z" fill="#A6A6A6"/>
</g>
<g opacity="0.5">
<path d="M26.56 47.7402H12.02V62.9802" stroke="#A6A6A6" stroke-width="2.23" stroke-miterlimit="10"/>
<path d="M26.56 154.77H12.02V139.53" stroke="#A6A6A6" stroke-width="2.23" stroke-miterlimit="10"/>
<path d="M229.18 47.0601H243.73V62.3001" stroke="#A6A6A6" stroke-width="2.23" stroke-miterlimit="10"/>
<path d="M229.18 154.09H243.73V138.85" stroke="#A6A6A6" stroke-width="2.23" stroke-miterlimit="10"/>
</g>
<path d="M80.3125 96.3359V107H78.1152V98.0571H73.8306V107H71.6333V96.3359H80.3125ZM92.9912 101.419V101.924C92.9912 102.735 92.8813 103.462 92.6616 104.107C92.4419 104.751 92.1318 105.301 91.7314 105.755C91.3311 106.204 90.8525 106.548 90.2959 106.788C89.7441 107.027 89.1313 107.146 88.4575 107.146C87.7886 107.146 87.1758 107.027 86.6191 106.788C86.0674 106.548 85.5889 106.204 85.1836 105.755C84.7783 105.301 84.4634 104.751 84.2388 104.107C84.019 103.462 83.9092 102.735 83.9092 101.924V101.419C83.9092 100.604 84.019 99.876 84.2388 99.2363C84.4585 98.5918 84.7686 98.0425 85.1689 97.5884C85.5742 97.1343 86.0527 96.7876 86.6045 96.5483C87.1611 96.3091 87.7739 96.1895 88.4429 96.1895C89.1167 96.1895 89.7295 96.3091 90.2812 96.5483C90.8379 96.7876 91.3164 97.1343 91.7168 97.5884C92.1221 98.0425 92.4346 98.5918 92.6543 99.2363C92.8789 99.876 92.9912 100.604 92.9912 101.419ZM90.772 101.924V101.404C90.772 100.838 90.7207 100.34 90.6182 99.9102C90.5156 99.4805 90.3643 99.1191 90.1641 98.8262C89.9639 98.5332 89.7197 98.3135 89.4316 98.167C89.1436 98.0156 88.814 97.9399 88.4429 97.9399C88.0718 97.9399 87.7422 98.0156 87.4541 98.167C87.1709 98.3135 86.9292 98.5332 86.729 98.8262C86.5337 99.1191 86.3848 99.4805 86.2822 99.9102C86.1797 100.34 86.1284 100.838 86.1284 101.404V101.924C86.1284 102.486 86.1797 102.984 86.2822 103.418C86.3848 103.848 86.5361 104.212 86.7363 104.51C86.9365 104.803 87.1807 105.025 87.4688 105.176C87.7568 105.328 88.0864 105.403 88.4575 105.403C88.8286 105.403 89.1582 105.328 89.4463 105.176C89.7344 105.025 89.9761 104.803 90.1714 104.51C90.3667 104.212 90.5156 103.848 90.6182 103.418C90.7207 102.984 90.772 102.486 90.772 101.924ZM103.451 96.3359V98.0571H98.1479V96.3359H103.451ZM105.018 96.3359V107H102.821V96.3359H105.018ZM97.8696 96.3359H100.06L99.7886 101.69C99.7495 102.491 99.6738 103.187 99.5615 103.777C99.4541 104.368 99.3076 104.871 99.1221 105.286C98.9365 105.696 98.707 106.028 98.4336 106.282C98.165 106.531 97.8477 106.714 97.4814 106.832C97.1152 106.944 96.6978 107 96.229 107H95.687V105.286L95.9653 105.264C96.2046 105.24 96.4146 105.176 96.5952 105.074C96.7759 104.971 96.9297 104.817 97.0566 104.612C97.1885 104.407 97.2959 104.146 97.3789 103.829C97.4668 103.506 97.5352 103.113 97.584 102.649C97.6377 102.186 97.6743 101.644 97.6938 101.023L97.8696 96.3359ZM111.134 96.3359V107H108.937V96.3359H111.134ZM117.418 96.3359L113.332 102.598H110.644L110.365 100.643H112.16L114.752 96.3359H117.418ZM115.155 107L112.167 102.232L113.69 100.665L117.763 107H115.155ZM126.223 99.2949V98.2036C126.223 97.8862 126.284 97.5591 126.406 97.2222C126.528 96.8853 126.689 96.5679 126.89 96.27C127.09 95.9673 127.31 95.7109 127.549 95.501L128.53 96.0723C128.354 96.3652 128.203 96.6802 128.076 97.0171C127.949 97.354 127.886 97.7495 127.886 98.2036V99.2949H126.223ZM128.713 99.2949V98.2036C128.713 97.8862 128.774 97.5591 128.896 97.2222C129.019 96.8853 129.18 96.5679 129.38 96.27C129.58 95.9673 129.8 95.7109 130.039 95.501L131.021 96.0723C130.845 96.3652 130.693 96.6802 130.566 97.0171C130.439 97.354 130.376 97.7495 130.376 98.2036V99.2949H128.713ZM141.414 96.3359V98.0571H136.609V107H134.419V96.3359H141.414ZM151.932 105.286V107H146.256V105.286H151.932ZM146.974 96.3359V107H144.776V96.3359H146.974ZM151.192 100.679V102.349H146.256V100.679H151.192ZM151.925 96.3359V98.0571H146.256V96.3359H151.925ZM159.367 103.199H156.649V101.485H159.367C159.787 101.485 160.128 101.417 160.392 101.28C160.656 101.138 160.849 100.943 160.971 100.694C161.093 100.445 161.154 100.164 161.154 99.8516C161.154 99.5342 161.093 99.2388 160.971 98.9653C160.849 98.6919 160.656 98.4722 160.392 98.3062C160.128 98.1401 159.787 98.0571 159.367 98.0571H157.411V107H155.214V96.3359H159.367C160.202 96.3359 160.917 96.4873 161.513 96.79C162.113 97.0879 162.572 97.5005 162.89 98.0278C163.207 98.5552 163.366 99.1582 163.366 99.8369C163.366 100.525 163.207 101.121 162.89 101.624C162.572 102.127 162.113 102.515 161.513 102.789C160.917 103.062 160.202 103.199 159.367 103.199ZM176.916 105.293L176.777 109.571H174.726V107H173.854V105.293H176.916ZM166.772 107V96.3359H168.962V105.286H173.254V96.3359H175.458V107H166.772ZM181.685 100.225H184.175C185.015 100.225 185.737 100.364 186.343 100.643C186.948 100.921 187.415 101.312 187.742 101.814C188.069 102.317 188.232 102.903 188.232 103.572C188.232 104.08 188.14 104.544 187.954 104.964C187.769 105.379 187.498 105.74 187.141 106.048C186.79 106.351 186.365 106.585 185.867 106.751C185.369 106.917 184.805 107 184.175 107H180.249V96.3359H182.454V105.286H184.175C184.595 105.286 184.941 105.208 185.215 105.052C185.488 104.896 185.693 104.688 185.83 104.429C185.972 104.166 186.042 103.875 186.042 103.558C186.042 103.255 185.972 102.981 185.83 102.737C185.693 102.488 185.488 102.293 185.215 102.151C184.941 102.01 184.595 101.939 184.175 101.939H181.685V100.225ZM193.06 95.75V96.8633C193.06 97.1807 192.999 97.5078 192.876 97.8447C192.759 98.1816 192.601 98.5015 192.4 98.8042C192.2 99.1021 191.98 99.356 191.741 99.5659L190.752 98.9946C190.933 98.7065 191.087 98.394 191.214 98.0571C191.341 97.7153 191.404 97.3198 191.404 96.8706V95.75H193.06ZM195.586 95.75V96.8633C195.586 97.1807 195.525 97.5078 195.403 97.8447C195.286 98.1816 195.127 98.5015 194.927 98.8042C194.727 99.1021 194.507 99.356 194.268 99.5659L193.279 98.9946C193.46 98.7065 193.614 98.394 193.741 98.0571C193.868 97.7153 193.931 97.3198 193.931 96.8706V95.75H195.586Z" fill="#A6A6A6"/>
</g>
<defs>
<clipPath id="clip0_123_794">
<rect width="244.85" height="155.88" fill="white"/>
</clipPath>
</defs>
</svg>
